<?xml version="1.0" encoding="UTF-8"?>
<svg width="675px" height="88px" viewBox="0 0 675 88" version="1.1" xmlns="http://www.w3.org/2000/svg" xmlns:xlink="http://www.w3.org/1999/xlink">
    <title>corematch_logo_full</title>
    <g id="Page-1" stroke="none" stroke-width="1" fill="none" fill-rule="evenodd">
        <g id="Artboard" transform="translate(-195.000000, -389.000000)" fill="#000000">
            <g id="corematch_logo_full" transform="translate(195.000000, 389.000000)">
                <path d="M193,55 L193,47.1428571 L169.6,47.1428571 L169.6,7.85714286 L193,7.85714286 L193,0 L161.8,0 L161.8,7.85714286 L154,7.85714286 L154,47.1428571 L161.8,47.1428571 L161.8,55 L193,55 Z M201,16 L201,8 L193,8 L193,16 L201,16 Z M201,47 L201,39 L193,39 L193,47 L201,47 Z M250.166667,55 L250.166667,47.1428571 L258,47.1428571 L258,7.85714286 L250.166667,7.85714286 L250.166667,0 L218.833333,0 L218.833333,7.85714286 L211,7.85714286 L211,47.1428571 L218.833333,47.1428571 L218.833333,55 L250.166667,55 Z M243,47 L227,47 L227,8 L243,8 L243,47 Z M283.666667,55 L283.666667,39.2857143 L291.5,39.2857143 L291.5,47.1428571 L299.333333,47.1428571 L299.333333,55 L315,55 L315,47.1428571 L307.166667,47.1428571 L307.166667,31.4285714 L315,31.4285714 L315,7.85714286 L307.166667,7.85714286 L307.166667,0 L268,0 L268,55 L283.666667,55 Z M296,32 L280,32 L280,8 L296,8 L296,32 Z M372,55 L372,47.1428571 L340.666667,47.1428571 L340.666667,31.4285714 L356.333333,31.4285714 L356.333333,23.5714286 L340.666667,23.5714286 L340.666667,7.85714286 L372,7.85714286 L372,0 L325,0 L325,55 L372,55 Z M389.875,55 L389.875,23.5714286 L397.75,23.5714286 L397.75,31.4285714 L405.625,31.4285714 L405.625,39.2857143 L413.5,39.2857143 L413.5,31.4285714 L421.375,31.4285714 L421.375,23.5714286 L429.25,23.5714286 L429.25,55 L445,55 L445,0 L429.25,0 L429.25,7.85714286 L421.375,7.85714286 L421.375,15.7142857 L413.5,15.7142857 L413.5,23.5714286 L405.625,23.5714286 L405.625,15.7142857 L397.75,15.7142857 L397.75,7.85714286 L389.875,7.85714286 L389.875,0 L382,0 L382,55 L389.875,55 Z M470.666667,55 L470.666667,39.2857143 L486.333333,39.2857143 L486.333333,55 L502,55 L502,7.85714286 L494.166667,7.85714286 L494.166667,0 L462.833333,0 L462.833333,7.85714286 L455,7.85714286 L455,55 L470.666667,55 Z M484,32 L468,32 L468,8 L484,8 L484,32 Z M543.333333,55 L543.333333,7.85714286 L559,7.85714286 L559,0 L512,0 L512,7.85714286 L527.666667,7.85714286 L527.666667,55 L543.333333,55 Z M608,55 L608,47.1428571 L584.6,47.1428571 L584.6,7.85714286 L608,7.85714286 L608,0 L576.8,0 L576.8,7.85714286 L569,7.85714286 L569,47.1428571 L576.8,47.1428571 L576.8,55 L608,55 Z M618,16 L618,8 L610,8 L610,16 L618,16 Z M616,47 L616,39 L608,39 L608,47 L616,47 Z M643.666667,55 L643.666667,31.4285714 L659.333333,31.4285714 L659.333333,55 L675,55 L675,0 L659.333333,0 L659.333333,23.5714286 L643.666667,23.5714286 L643.666667,0 L628,0 L628,55 L643.666667,55 Z" id="COREMATCH" fill-rule="nonzero"></path>
                <g id="icon" fill-rule="nonzero">
                    <g id="right" transform="translate(70.000000, 0.000000)">
                        <polygon id="Path" points="9 18.05 9 8.8 0 8.8 0 18.05 0 27.3 0 36.55 0 45.8 9 45.8 9 36.55"></polygon>
                        <polygon id="Path" points="27 9 36 9 45 9 45 0 36 0 27 0 18 0 9 0 9 9 18 9"></polygon>
                        <polygon id="Path" points="27 45.8 18 45.8 9 45.8 9 54.8 18 54.8 27 54.8 36 54.8 45 54.8 45 45.8 36 45.8"></polygon>
                        <polygon id="Path" points="45 8.8 45 18.05 27 18.05 27 36.55 45 36.55 45 45.8 54 45.8 54 36.55 54 27.3 54 18.05 54 8.8"></polygon>
                    </g>
                    <g id="right">
                        <polygon id="Path" points="9 18.05 9 8.8 0 8.8 0 18.05 0 27.3 0 36.55 0 45.8 9 45.8 9 36.55"></polygon>
                        <polygon id="Path" points="27 9 36 9 45 9 45 0 36 0 27 0 18 0 9 0 9 9 18 9"></polygon>
                        <polygon id="Path" points="27 45.8 18 45.8 9 45.8 9 54.8 18 54.8 27 54.8 36 54.8 45 54.8 45 45.8 36 45.8"></polygon>
                        <polygon id="Path" points="45 8.8 45 18.05 27 18.05 27 36.55 45 36.55 45 45.8 54 45.8 54 36.55 54 27.3 54 18.05 54 8.8"></polygon>
                    </g>
                </g>
                <polygon id="line" points="4.06370345 77.0118837 4.06370345 73 131 73 131 77.9961376 126.996672 77.9961376 126.996672 82 0 82 0 77.0118837"></polygon>
                <path d="M153.5,82 L153.5,73.25 L157,73.25 L157,71.5 L153.5,71.5 L153.5,69.75 L151.75,69.75 L151.75,71.5 L150,71.5 L150,73.25 L151.75,73.25 L151.75,82 L153.5,82 Z M157,83.75 L157,82 L153.5,82 L153.5,83.75 L157,83.75 Z M164,83.75 L164,73.25 L169.25,73.25 L169.25,71.5 L164,71.5 L164,68 L162.25,68 L162.25,83.75 L164,83.75 Z M171,83.75 L171,73.25 L169.25,73.25 L169.25,83.75 L171,83.75 Z M183.25,73.25 L183.25,71.5 L178,71.5 L178,73.25 L183.25,73.25 Z M178,82 L178,78.5 L185,78.5 L185,73.25 L183.25,73.25 L183.25,76.75 L178,76.75 L178,73.25 L176.25,73.25 L176.25,82 L178,82 Z M185,82 L185,80.25 L183.25,80.25 L183.25,82 L185,82 Z M183.25,83.75 L183.25,82 L178,82 L178,83.75 L183.25,83.75 Z M206,87.25 L206,83.75 L211.25,83.75 L211.25,82 L206,82 L206,73.25 L211.25,73.25 L211.25,71.5 L204.25,71.5 L204.25,87.25 L206,87.25 Z M213,82 L213,73.25 L211.25,73.25 L211.25,82 L213,82 Z M225.25,73.25 L225.25,71.5 L220,71.5 L220,73.25 L225.25,73.25 Z M227,82 L227,73.25 L225.25,73.25 L225.25,82 L227,82 Z M220,82 L220,73.25 L218.25,73.25 L218.25,82 L220,82 Z M225.25,83.75 L225.25,82 L220,82 L220,83.75 L225.25,83.75 Z M241,83.75 L241,82 L237.5,82 L237.5,68 L232.25,68 L232.25,69.75 L235.75,69.75 L235.75,82 L232.25,82 L232.25,83.75 L241,83.75 Z M248,83.75 L248,78.5 L249.75,78.5 L249.75,76.75 L248,76.75 L248,68 L246.25,68 L246.25,83.75 L248,83.75 Z M255,73.25 L255,71.5 L253.25,71.5 L253.25,73.25 L255,73.25 Z M253.25,75 L253.25,73.25 L251.5,73.25 L251.5,75 L253.25,75 Z M251.5,76.75 L251.5,75 L249.75,75 L249.75,76.75 L251.5,76.75 Z M251.5,80.25 L251.5,78.5 L249.75,78.5 L249.75,80.25 L251.5,80.25 Z M253.25,82 L253.25,80.25 L251.5,80.25 L251.5,82 L253.25,82 Z M255,83.75 L255,82 L253.25,82 L253.25,83.75 L255,83.75 Z M267.25,73.25 L267.25,71.5 L262,71.5 L262,73.25 L267.25,73.25 Z M262,75 L262,73.25 L260.25,73.25 L260.25,75 L262,75 Z M262,78.5 L267.25,78.5 L267.25,82 L262,82 L262,78.5 Z M262,78.5 L260.25,78.5 L260.25,82 L262,82 L262,83.75 L269,83.75 L269,73.25 L267.25,73.25 L267.25,76.75 L262,76.75 L262,78.5 Z M276,73.25 L281.25,73.25 L281.25,82 L276,82 L276,73.25 Z M276,73.25 L274.25,73.25 L274.25,82 L276,82 L276,83.75 L283,83.75 L283,68 L281.25,68 L281.25,71.5 L276,71.5 L276,73.25 Z M295.25,73.25 L295.25,71.5 L290,71.5 L290,73.25 L295.25,73.25 Z M297,82 L297,73.25 L295.25,73.25 L295.25,82 L297,82 Z M290,82 L290,73.25 L288.25,73.25 L288.25,82 L290,82 Z M295.25,83.75 L295.25,82 L290,82 L290,83.75 L295.25,83.75 Z M307.5,82 L307.5,73.25 L311,73.25 L311,71.5 L307.5,71.5 L307.5,69.75 L305.75,69.75 L305.75,71.5 L304,71.5 L304,73.25 L305.75,73.25 L305.75,82 L307.5,82 Z M311,83.75 L311,82 L307.5,82 L307.5,83.75 L311,83.75 Z M339,82 L339,71.5 L337.25,71.5 L337.25,82 L339,82 Z M332,82 L332,71.5 L330.25,71.5 L330.25,82 L332,82 Z M337.25,83.75 L337.25,82 L332,82 L332,83.75 L337.25,83.75 Z M346,83.75 L346,73.25 L351.25,73.25 L351.25,71.5 L344.25,71.5 L344.25,83.75 L346,83.75 Z M353,83.75 L353,73.25 L351.25,73.25 L351.25,83.75 L353,83.75 Z M365.25,73.25 L365.25,71.5 L360,71.5 L360,73.25 L365.25,73.25 Z M360,76.75 L360,73.25 L358.25,73.25 L358.25,76.75 L360,76.75 Z M367,75 L367,73.25 L365.25,73.25 L365.25,75 L367,75 Z M365.25,78.5 L365.25,76.75 L360,76.75 L360,78.5 L365.25,78.5 Z M367,82 L367,78.5 L365.25,78.5 L365.25,82 L367,82 Z M360,82 L360,80.25 L358.25,80.25 L358.25,82 L360,82 Z M365.25,83.75 L365.25,82 L360,82 L360,83.75 L365.25,83.75 Z M377.5,82 L377.5,73.25 L381,73.25 L381,71.5 L377.5,71.5 L377.5,69.75 L375.75,69.75 L375.75,71.5 L374,71.5 L374,73.25 L375.75,73.25 L375.75,82 L377.5,82 Z M381,83.75 L381,82 L377.5,82 L377.5,83.75 L381,83.75 Z M393.25,73.25 L393.25,71.5 L388,71.5 L388,73.25 L393.25,73.25 Z M395,82 L395,73.25 L393.25,73.25 L393.25,82 L395,82 Z M388,82 L388,73.25 L386.25,73.25 L386.25,82 L388,82 Z M393.25,83.75 L393.25,82 L388,82 L388,83.75 L393.25,83.75 Z M402,87.25 L402,83.75 L407.25,83.75 L407.25,82 L402,82 L402,73.25 L407.25,73.25 L407.25,71.5 L400.25,71.5 L400.25,87.25 L402,87.25 Z M409,82 L409,73.25 L407.25,73.25 L407.25,82 L409,82 Z M416,87.25 L416,83.75 L421.25,83.75 L421.25,82 L416,82 L416,73.25 L421.25,73.25 L421.25,71.5 L414.25,71.5 L414.25,87.25 L416,87.25 Z M423,82 L423,73.25 L421.25,73.25 L421.25,82 L423,82 Z M435.25,73.25 L435.25,71.5 L430,71.5 L430,73.25 L435.25,73.25 Z M430,75 L430,73.25 L428.25,73.25 L428.25,75 L430,75 Z M430,78.5 L435.25,78.5 L435.25,82 L430,82 L430,78.5 Z M430,78.5 L428.25,78.5 L428.25,82 L430,82 L430,83.75 L437,83.75 L437,73.25 L435.25,73.25 L435.25,76.75 L430,76.75 L430,78.5 Z M449.25,83.75 L449.25,82 L444,82 L444,73.25 L449.25,73.25 L449.25,71.5 L444,71.5 L444,68 L442.25,68 L442.25,83.75 L449.25,83.75 Z M451,82 L451,73.25 L449.25,73.25 L449.25,82 L451,82 Z M465,83.75 L465,82 L461.5,82 L461.5,68 L456.25,68 L456.25,69.75 L459.75,69.75 L459.75,82 L456.25,82 L456.25,83.75 L465,83.75 Z M477.25,73.25 L477.25,71.5 L472,71.5 L472,73.25 L477.25,73.25 Z M472,82 L472,78.5 L479,78.5 L479,73.25 L477.25,73.25 L477.25,76.75 L472,76.75 L472,73.25 L470.25,73.25 L470.25,82 L472,82 Z M479,82 L479,80.25 L477.25,80.25 L477.25,82 L479,82 Z M477.25,83.75 L477.25,82 L472,82 L472,83.75 L477.25,83.75 Z M507,73.25 L507,71.5 L503.5,71.5 L503.5,73.25 L507,73.25 Z M498.25,83.75 L498.25,73.25 L501.75,73.25 L501.75,71.5 L496.5,71.5 L496.5,83.75 L498.25,83.75 Z M508.75,83.75 L508.75,73.25 L507,73.25 L507,83.75 L508.75,83.75 Z M503.5,80.25 L503.5,73.25 L501.75,73.25 L501.75,80.25 L503.5,80.25 Z M519.25,73.25 L519.25,71.5 L514,71.5 L514,73.25 L519.25,73.25 Z M514,75 L514,73.25 L512.25,73.25 L512.25,75 L514,75 Z M514,78.5 L519.25,78.5 L519.25,82 L514,82 L514,78.5 Z M514,78.5 L512.25,78.5 L512.25,82 L514,82 L514,83.75 L521,83.75 L521,73.25 L519.25,73.25 L519.25,76.75 L514,76.75 L514,78.5 Z M531.5,82 L531.5,73.25 L535,73.25 L535,71.5 L531.5,71.5 L531.5,69.75 L529.75,69.75 L529.75,71.5 L528,71.5 L528,73.25 L529.75,73.25 L529.75,82 L531.5,82 Z M535,83.75 L535,82 L531.5,82 L531.5,83.75 L535,83.75 Z M547.25,73.25 L547.25,71.5 L542,71.5 L542,73.25 L547.25,73.25 Z M542,82 L542,73.25 L540.25,73.25 L540.25,82 L542,82 Z M549,75 L549,73.25 L547.25,73.25 L547.25,75 L549,75 Z M549,82 L549,80.25 L547.25,80.25 L547.25,82 L549,82 Z M547.25,83.75 L547.25,82 L542,82 L542,83.75 L547.25,83.75 Z M556,83.75 L556,73.25 L561.25,73.25 L561.25,71.5 L556,71.5 L556,68 L554.25,68 L554.25,83.75 L556,83.75 Z M563,83.75 L563,73.25 L561.25,73.25 L561.25,83.75 L563,83.75 Z M573.5,69.75 L573.5,68 L571.75,68 L571.75,69.75 L573.5,69.75 Z M577,83.75 L577,82 L573.5,82 L573.5,71.5 L568.25,71.5 L568.25,73.25 L571.75,73.25 L571.75,82 L568.25,82 L568.25,83.75 L577,83.75 Z M584,83.75 L584,73.25 L589.25,73.25 L589.25,71.5 L582.25,71.5 L582.25,83.75 L584,83.75 Z M591,83.75 L591,73.25 L589.25,73.25 L589.25,83.75 L591,83.75 Z M598,73.25 L603.25,73.25 L603.25,80.25 L598,80.25 L598,73.25 Z M598,85.5 L598,83.75 L596.25,83.75 L596.25,85.5 L598,85.5 Z M603.25,87.25 L603.25,85.5 L598,85.5 L598,87.25 L603.25,87.25 Z M598,73.25 L596.25,73.25 L596.25,80.25 L598,80.25 L598,82 L603.25,82 L603.25,85.5 L605,85.5 L605,71.5 L598,71.5 L598,73.25 Z M626,73.25 L631.25,73.25 L631.25,80.25 L626,80.25 L626,73.25 Z M626,85.5 L626,83.75 L624.25,83.75 L624.25,85.5 L626,85.5 Z M631.25,87.25 L631.25,85.5 L626,85.5 L626,87.25 L631.25,87.25 Z M626,73.25 L624.25,73.25 L624.25,80.25 L626,80.25 L626,82 L631.25,82 L631.25,85.5 L633,85.5 L633,71.5 L626,71.5 L626,73.25 Z M645.25,73.25 L645.25,71.5 L640,71.5 L640,73.25 L645.25,73.25 Z M640,75 L640,73.25 L638.25,73.25 L638.25,75 L640,75 Z M640,78.5 L645.25,78.5 L645.25,82 L640,82 L640,78.5 Z M640,78.5 L638.25,78.5 L638.25,82 L640,82 L640,83.75 L647,83.75 L647,73.25 L645.25,73.25 L645.25,76.75 L640,76.75 L640,78.5 Z M661,73.25 L661,71.5 L657.5,71.5 L657.5,73.25 L661,73.25 Z M652.25,83.75 L652.25,73.25 L655.75,73.25 L655.75,71.5 L650.5,71.5 L650.5,83.75 L652.25,83.75 Z M662.75,83.75 L662.75,73.25 L661,73.25 L661,83.75 L662.75,83.75 Z M657.5,80.25 L657.5,73.25 L655.75,73.25 L655.75,80.25 L657.5,80.25 Z M673.25,73.25 L673.25,71.5 L668,71.5 L668,73.25 L673.25,73.25 Z M668,82 L668,78.5 L675,78.5 L675,73.25 L673.25,73.25 L673.25,76.75 L668,76.75 L668,73.25 L666.25,73.25 L666.25,82 L668,82 Z M675,82 L675,80.25 L673.25,80.25 L673.25,82 L675,82 Z M673.25,83.75 L673.25,82 L668,82 L668,83.75 L673.25,83.75 Z" id="motto" fill-rule="nonzero"></path>
            </g>
        </g>
    </g>
</svg>