<?xml version="1.0" encoding="UTF-8"?>
<svg width="675px" height="89px" viewBox="0 0 675 89" version="1.1" xmlns="http://www.w3.org/2000/svg" xmlns:xlink="http://www.w3.org/1999/xlink">
    <title>corematch_logo_kusama</title>
    <g id="Page-1" stroke="none" stroke-width="1" fill="none" fill-rule="evenodd">
        <g id="Artboard" transform="translate(-195.000000, -659.000000)" fill="#22262A">
            <g id="corematch_logo_kusama" transform="translate(195.000000, 659.000000)">
                <path d="M193,55 L193,47.1428571 L169.6,47.1428571 L169.6,7.85714286 L193,7.85714286 L193,0 L161.8,0 L161.8,7.85714286 L154,7.85714286 L154,47.1428571 L161.8,47.1428571 L161.8,55 L193,55 Z M201,16 L201,8 L193,8 L193,16 L201,16 Z M201,47 L201,39 L193,39 L193,47 L201,47 Z M250.166667,55 L250.166667,47.1428571 L258,47.1428571 L258,7.85714286 L250.166667,7.85714286 L250.166667,0 L218.833333,0 L218.833333,7.85714286 L211,7.85714286 L211,47.1428571 L218.833333,47.1428571 L218.833333,55 L250.166667,55 Z M243,47 L227,47 L227,8 L243,8 L243,47 Z M283.666667,55 L283.666667,39.2857143 L291.5,39.2857143 L291.5,47.1428571 L299.333333,47.1428571 L299.333333,55 L315,55 L315,47.1428571 L307.166667,47.1428571 L307.166667,31.4285714 L315,31.4285714 L315,7.85714286 L307.166667,7.85714286 L307.166667,0 L268,0 L268,55 L283.666667,55 Z M296,32 L280,32 L280,8 L296,8 L296,32 Z M372,55 L372,47.1428571 L340.666667,47.1428571 L340.666667,31.4285714 L356.333333,31.4285714 L356.333333,23.5714286 L340.666667,23.5714286 L340.666667,7.85714286 L372,7.85714286 L372,0 L325,0 L325,55 L372,55 Z M389.875,55 L389.875,23.5714286 L397.75,23.5714286 L397.75,31.4285714 L405.625,31.4285714 L405.625,39.2857143 L413.5,39.2857143 L413.5,31.4285714 L421.375,31.4285714 L421.375,23.5714286 L429.25,23.5714286 L429.25,55 L445,55 L445,0 L429.25,0 L429.25,7.85714286 L421.375,7.85714286 L421.375,15.7142857 L413.5,15.7142857 L413.5,23.5714286 L405.625,23.5714286 L405.625,15.7142857 L397.75,15.7142857 L397.75,7.85714286 L389.875,7.85714286 L389.875,0 L382,0 L382,55 L389.875,55 Z M470.666667,55 L470.666667,39.2857143 L486.333333,39.2857143 L486.333333,55 L502,55 L502,7.85714286 L494.166667,7.85714286 L494.166667,0 L462.833333,0 L462.833333,7.85714286 L455,7.85714286 L455,55 L470.666667,55 Z M484,32 L468,32 L468,8 L484,8 L484,32 Z M543.333333,55 L543.333333,7.85714286 L559,7.85714286 L559,0 L512,0 L512,7.85714286 L527.666667,7.85714286 L527.666667,55 L543.333333,55 Z M608,55 L608,47.1428571 L584.6,47.1428571 L584.6,7.85714286 L608,7.85714286 L608,0 L576.8,0 L576.8,7.85714286 L569,7.85714286 L569,47.1428571 L576.8,47.1428571 L576.8,55 L608,55 Z M618,16 L618,8 L610,8 L610,16 L618,16 Z M616,47 L616,39 L608,39 L608,47 L616,47 Z M643.666667,55 L643.666667,31.4285714 L659.333333,31.4285714 L659.333333,55 L675,55 L675,0 L659.333333,0 L659.333333,23.5714286 L643.666667,23.5714286 L643.666667,0 L628,0 L628,55 L643.666667,55 Z" id="COREMATCH" fill-rule="nonzero"></path>
                <g id="icon" fill-rule="nonzero">
                    <g id="right" transform="translate(70.000000, 0.000000)">
                        <polygon id="Path" points="9 18.05 9 8.8 0 8.8 0 18.05 0 27.3 0 36.55 0 45.8 9 45.8 9 36.55"></polygon>
                        <polygon id="Path" points="27 9 36 9 45 9 45 0 36 0 27 0 18 0 9 0 9 9 18 9"></polygon>
                        <polygon id="Path" points="27 45.8 18 45.8 9 45.8 9 54.8 18 54.8 27 54.8 36 54.8 45 54.8 45 45.8 36 45.8"></polygon>
                        <polygon id="Path" points="45 8.8 45 18.05 27 18.05 27 36.55 45 36.55 45 45.8 54 45.8 54 36.55 54 27.3 54 18.05 54 8.8"></polygon>
                    </g>
                    <g id="left">
                        <polygon id="Path" points="9 18.05 9 8.8 0 8.8 0 18.05 0 27.3 0 36.55 0 45.8 9 45.8 9 36.55"></polygon>
                        <polygon id="Path" points="27 9 36 9 45 9 45 0 36 0 27 0 18 0 9 0 9 9 18 9"></polygon>
                        <polygon id="Path" points="27 45.8 18 45.8 9 45.8 9 54.8 18 54.8 27 54.8 36 54.8 45 54.8 45 45.8 36 45.8"></polygon>
                        <polygon id="Path" points="45 8.8 45 18.05 27 18.05 27 36.55 45 36.55 45 45.8 54 45.8 54 36.55 54 27.3 54 18.05 54 8.8"></polygon>
                    </g>
                </g>
                <polygon id="line" points="9.1032943 78.0118837 9.1032943 74 287 74 287 78.0118837 277.923376 78.0118837 277.923376 83 0 83 0 78.0118837"></polygon>
                <path d="M319,83 L319,71 L317,71 L317,83 L319,83 Z M311,83 L311,71 L309,71 L309,83 L311,83 Z M317,85 L317,83 L311,83 L311,85 L317,85 Z M327,85 L327,73 L333,73 L333,71 L325,71 L325,85 L327,85 Z M335,85 L335,73 L333,73 L333,85 L335,85 Z M349,73 L349,71 L343,71 L343,73 L349,73 Z M343,77 L343,73 L341,73 L341,77 L343,77 Z M351,75 L351,73 L349,73 L349,75 L351,75 Z M349,79 L349,77 L343,77 L343,79 L349,79 Z M351,83 L351,79 L349,79 L349,83 L351,83 Z M343,83 L343,81 L341,81 L341,83 L343,83 Z M349,85 L349,83 L343,83 L343,85 L349,85 Z M363,83 L363,73 L367,73 L367,71 L363,71 L363,69 L361,69 L361,71 L359,71 L359,73 L361,73 L361,83 L363,83 Z M367,85 L367,83 L363,83 L363,85 L367,85 Z M381,73 L381,71 L375,71 L375,73 L381,73 Z M383,83 L383,73 L381,73 L381,83 L383,83 Z M375,83 L375,73 L373,73 L373,83 L375,83 Z M381,85 L381,83 L375,83 L375,85 L381,85 Z M391,89 L391,85 L397,85 L397,83 L391,83 L391,73 L397,73 L397,71 L389,71 L389,89 L391,89 Z M399,83 L399,73 L397,73 L397,83 L399,83 Z M407,89 L407,85 L413,85 L413,83 L407,83 L407,73 L413,73 L413,71 L405,71 L405,89 L407,89 Z M415,83 L415,73 L413,73 L413,83 L415,83 Z M429,73 L429,71 L423,71 L423,73 L429,73 Z M423,75 L423,73 L421,73 L421,75 L423,75 Z M423,79 L429,79 L429,83 L423,83 L423,79 Z M423,79 L421,79 L421,83 L423,83 L423,85 L431,85 L431,73 L429,73 L429,77 L423,77 L423,79 Z M445,85 L445,83 L439,83 L439,73 L445,73 L445,71 L439,71 L439,67 L437,67 L437,85 L445,85 Z M447,83 L447,73 L445,73 L445,83 L447,83 Z M463,85 L463,83 L459,83 L459,67 L453,67 L453,69 L457,69 L457,83 L453,83 L453,85 L463,85 Z M477,73 L477,71 L471,71 L471,73 L477,73 Z M471,83 L471,79 L479,79 L479,73 L477,73 L477,77 L471,77 L471,73 L469,73 L469,83 L471,83 Z M479,83 L479,81 L477,81 L477,83 L479,83 Z M477,85 L477,83 L471,83 L471,85 L477,85 Z M509,85 L509,83 L503,83 L503,73 L509,73 L509,71 L503,71 L503,67 L501,67 L501,85 L509,85 Z M511,83 L511,73 L509,73 L509,83 L511,83 Z M519,81 L519,83 L525,83 L525,87 L527,87 L527,71 L525,71 L525,81 L519,81 Z M519,87 L519,85 L517,85 L517,87 L519,87 Z M525,89 L525,87 L519,87 L519,89 L525,89 Z M519,81 L519,71 L517,71 L517,81 L519,81 Z" id="motto" fill-rule="nonzero"></path>
                <g id="KUSAMA_6" transform="translate(549.000000, 60.000000)" fill-rule="nonzero">
                    <path d="M18.1789267,8.5501308 C17.5484014,8.02471008 16.7349435,7.7714102 15.9176205,7.84599036 C15.1002975,7.92057053 14.3461085,8.3169171 13.8210739,8.94778186 L7.57985465,16.4342259 C6.62267063,17.5818986 6.62267063,19.2498087 7.57985465,20.3974814 L13.8210739,27.8799489 C14.9150296,29.1925243 16.86581,29.3696685 18.178264,28.2756117 C19.490718,27.181555 19.6678459,25.2305942 18.5738903,23.9180189 L13.9840958,18.4158537 L18.5738903,12.9083864 C19.0995704,12.2781363 19.3532958,11.4648116 19.2792209,10.6474268 C19.2051461,9.83004202 18.8093423,9.07559133 18.1789267,8.5501308 Z M3.09343988,7.8330331 C2.27277908,7.8330331 1.48574976,8.15916037 0.90557924,8.73963312 C0.32540872,9.32010587 -0.000351043092,10.1073476 2.83880676e-07,10.9280842 L2.83880676e-07,25.9062742 C0.0348531941,27.5903023 1.40986948,28.9372776 3.09410257,28.9372776 C4.77833567,28.9372776 6.15335195,27.5903023 6.18820486,25.9062742 L6.18820486,10.9280842 C6.18855636,10.1071178 5.8626147,9.31967514 5.28215746,8.73916425 C4.70170022,8.15865335 3.9143303,7.83268156 3.09343988,7.8330331 Z M57.3810467,14.0218094 C59.0649191,13.9869536 60.41177,12.6118102 60.41177,10.9274214 C60.41177,9.24303262 59.0649191,7.86788923 57.3810467,7.83303338 L44.2770045,7.83303338 C42.5678131,7.83303338 41.1822398,9.21873481 41.1822398,10.9280842 L41.1822398,16.5442427 C41.1828598,17.9260703 42.09894,19.1402322 43.4274353,19.5199981 L54.286282,22.6230019 L54.286282,22.8098979 L44.2770045,22.8098979 C43.1563231,22.7867 42.1107001,23.3713608 41.5435562,24.3383073 C40.9764124,25.3052538 40.9764124,26.503318 41.5435562,27.4702645 C42.1107001,28.437211 43.1563231,29.0218718 44.2770045,28.9986739 L57.3810467,28.9986739 C59.089506,28.9986739 60.4744861,27.6135659 60.4744861,25.9049487 L60.4744861,20.2887902 C60.4747589,18.9066633 59.5583184,17.692024 58.2292905,17.3130347 L47.3704438,14.2100309 L47.3704438,14.0218094 L57.3810467,14.0218094 Z M36.7886017,7.83303338 C35.9679409,7.83303331 35.1809116,8.15916037 34.6007411,8.73963312 C34.0205705,9.32010587 33.6948108,10.1073476 33.6951624,10.9280842 L33.6951624,22.8098979 L26.7793242,22.8098979 L26.7793242,10.9280842 C26.8025199,9.80729919 26.2179132,8.76157948 25.2510561,8.19438323 C24.284199,7.62718698 23.0862454,7.62718698 22.1193883,8.19438323 C21.1525312,8.76157948 20.5679244,9.80729919 20.5911202,10.9280842 L20.5911202,25.9062742 C20.5911201,26.7270108 20.917217,27.5141129 21.4976361,28.0943371 C22.0780552,28.6745612 22.8652241,29.0003511 23.6858849,28.9999997 L36.7886017,28.9999997 C37.6092624,29.0003511 38.3964314,28.6745612 38.9768504,28.0943371 C39.5572695,27.5141129 39.8833667,26.7270108 39.8833667,25.9062742 L39.8833667,10.9280842 C39.8837182,10.1071178 39.5577765,9.31967514 38.9773193,8.73916425 C38.396862,8.15865335 37.6094921,7.83268156 36.7886017,7.83303338 L36.7886017,7.83303338 Z M72.8614971,8.94645636 C72.2739349,8.24087635 71.4032285,7.83303336 70.4850889,7.83303336 L64.8681241,7.83303336 C64.0474633,7.83303336 63.260434,8.15916037 62.6802635,8.73963312 C62.1000929,9.32010587 61.7743332,10.1073476 61.7746845,10.9280842 L61.7746845,25.9062742 C61.7746845,27.6148915 63.1596647,28.9999994 64.8681241,28.9999994 L72.6149762,28.9999994 C74.2988486,28.9651436 75.6456995,27.5900002 75.6456995,25.9056114 C75.6456995,24.2212226 74.2988486,22.8460792 72.6149762,22.8112234 L67.9628888,22.8112234 L67.9628888,14.0231349 L69.035122,14.0231349 L76.750165,23.2817772 L76.750165,25.9062742 C76.7850176,27.5903023 78.1600339,28.9372776 79.844267,28.9372776 C81.5285001,28.9372776 82.9035164,27.5903023 82.938369,25.9062742 L82.938369,22.1604012 C82.9377532,21.4359822 82.6830744,20.7347299 82.2186871,20.1787734 L72.8614971,8.94645636 Z M125.284293,20.1787734 L115.924452,8.94645636 C115.33689,8.24087635 114.466183,7.8330331 113.548044,7.8330331 L107.931079,7.8330331 C107.110189,7.83268156 106.322819,8.15865335 105.742361,8.73916425 C105.161904,9.31967514 104.835963,10.1071178 104.836314,10.9280842 L104.836314,25.9062742 C104.836666,26.7267811 105.162918,27.5135427 105.743299,28.0934801 C106.32368,28.6734176 107.110648,28.9990255 107.931079,28.9986742 L115.676606,28.9986742 C117.360478,28.9638181 118.707329,27.5886747 118.707329,25.9042859 C118.707329,24.2198971 117.360478,22.8447537 115.676606,22.8098979 L111.024518,22.8098979 L111.024518,14.0218094 L112.096752,14.0218094 L119.811795,23.2804517 L119.811795,25.9049487 C119.846647,27.5889768 121.221663,28.9359521 122.905897,28.9359521 C124.59013,28.9359521 125.965146,27.5889768 125.999999,25.9049487 L125.999999,22.1604012 C126.000499,21.436477 125.747247,20.7352803 125.284293,20.1787734 L125.284293,20.1787734 Z M101.736248,8.11669114 C100.638864,7.61183773 99.3480297,7.79197084 98.4307478,8.57796637 L93.8913178,12.4696448 L89.3439355,8.57664087 C88.4263028,7.79087582 87.1352574,7.61122116 86.037989,8.11660384 C84.9407206,8.62198652 84.2380067,9.71993189 84.2385675,10.9280842 L84.2385675,25.9062742 C84.2734204,27.5903023 85.6484367,28.9372776 87.3326698,28.9372776 C89.0169029,28.9372776 90.3919192,27.5903023 90.4267718,25.9062742 L90.4267718,17.6497126 L91.8846909,18.8943604 C93.0433828,19.8869391 94.7525066,19.8869391 95.9111985,18.8943604 L97.3545384,17.6563401 L97.3545384,25.9049487 C97.3545384,27.614298 98.7401118,28.9999994 100.449303,28.9999994 C102.158494,28.9999994 103.544068,27.614298 103.544068,25.9049487 L103.544068,10.9267586 C103.542571,9.7171679 102.83633,8.61939112 101.736248,8.11669114 L101.736248,8.11669114 Z M80.0503637,6.42269761 L80.0503637,6.53934193 C80.0503637,6.53934193 84.3061622,4.85595243 85.1345254,5.29071759 L84.6348567,5.43784848 C84.6785943,5.43784848 85.4884021,5.49086862 85.4884021,5.49086862 C85.5268195,5.82950768 85.715067,6.13306652 86.0013246,6.31798283 C86.4890648,6.64008019 86.4983424,6.81504666 86.4983424,6.81504666 C86.4983424,6.81504666 86.2451947,6.91843594 86.2451947,7.04966079 C86.4805876,6.98227434 86.724015,6.9470499 86.9688527,6.94494601 C87.1897008,6.95282907 87.4087261,6.98800101 87.6209402,7.04966079 C87.6209402,7.04966079 87.5957579,6.91711043 87.255135,6.81504666 C86.9145121,6.71298289 86.5858176,6.35244593 86.420145,6.15229489 C86.2180271,5.89203281 86.1676844,5.54463635 86.2876069,5.23769745 C86.4055658,4.93548264 86.8177593,4.76714369 87.6540747,4.33237853 C88.6467851,3.81940866 88.8734252,3.43501263 89.0125902,3.13942534 C89.1517553,2.84383805 89.3611655,2.25133797 89.4764736,1.97298223 C89.572344,1.71280704 89.7372999,1.48368049 89.9536108,1.31023046 C90.1007281,1.19756265 90.7713709,0.944391478 90.7713709,0.944391478 C90.7713709,0.944391478 90.2597738,0.508300813 90.0927758,0.377075963 C89.8840492,0.179375669 89.6200792,0.0499213349 89.3359832,0.00593497108 C88.9807811,-0.0404576529 88.6202775,0.195481977 88.3764074,0.353216899 C88.1325372,0.51095182 87.6607016,0.972227053 87.4698467,1.10477741 C87.2789919,1.23732776 86.7899263,1.36987811 86.0119276,1.84573389 C85.2339289,2.32158966 82.1457911,4.29261342 82.1457911,4.29261342 L82.9410198,4.30056644 L79.3717687,6.15229489 L79.7282962,6.15229489 L79.2140483,6.54994595 C79.4988675,6.61515712 79.7978231,6.56966996 80.0503637,6.42269761 L80.0503637,6.42269761 Z" id="Shape"></path>
                </g>
            </g>
        </g>
    </g>
</svg>