<?xml version="1.0" encoding="UTF-8"?>
<svg width="670px" height="55px" viewBox="0 0 670 55" version="1.1" xmlns="http://www.w3.org/2000/svg" xmlns:xlink="http://www.w3.org/1999/xlink">
    <title>corematch_logo</title>
    <g id="Page-1" stroke="none" stroke-width="1" fill="none" fill-rule="evenodd">
        <g id="Artboard" transform="translate(-190.000000, -502.000000)" fill="#000000" fill-rule="nonzero">
            <g id="corematch_logo" transform="translate(190.000000, 502.000000)">
                <path d="M188,55 L188,47.1428571 L164.6,47.1428571 L164.6,7.85714286 L188,7.85714286 L188,0 L156.8,0 L156.8,7.85714286 L149,7.85714286 L149,47.1428571 L156.8,47.1428571 L156.8,55 L188,55 Z M196,16 L196,8 L188,8 L188,16 L196,16 Z M196,47 L196,39 L188,39 L188,47 L196,47 Z M245.166667,55 L245.166667,47.1428571 L253,47.1428571 L253,7.85714286 L245.166667,7.85714286 L245.166667,0 L213.833333,0 L213.833333,7.85714286 L206,7.85714286 L206,47.1428571 L213.833333,47.1428571 L213.833333,55 L245.166667,55 Z M238,47 L222,47 L222,8 L238,8 L238,47 Z M278.666667,55 L278.666667,39.2857143 L286.5,39.2857143 L286.5,47.1428571 L294.333333,47.1428571 L294.333333,55 L310,55 L310,47.1428571 L302.166667,47.1428571 L302.166667,31.4285714 L310,31.4285714 L310,7.85714286 L302.166667,7.85714286 L302.166667,0 L263,0 L263,55 L278.666667,55 Z M291,32 L275,32 L275,8 L291,8 L291,32 Z M367,55 L367,47.1428571 L335.666667,47.1428571 L335.666667,31.4285714 L351.333333,31.4285714 L351.333333,23.5714286 L335.666667,23.5714286 L335.666667,7.85714286 L367,7.85714286 L367,0 L320,0 L320,55 L367,55 Z M384.875,55 L384.875,23.5714286 L392.75,23.5714286 L392.75,31.4285714 L400.625,31.4285714 L400.625,39.2857143 L408.5,39.2857143 L408.5,31.4285714 L416.375,31.4285714 L416.375,23.5714286 L424.25,23.5714286 L424.25,55 L440,55 L440,0 L424.25,0 L424.25,7.85714286 L416.375,7.85714286 L416.375,15.7142857 L408.5,15.7142857 L408.5,23.5714286 L400.625,23.5714286 L400.625,15.7142857 L392.75,15.7142857 L392.75,7.85714286 L384.875,7.85714286 L384.875,0 L377,0 L377,55 L384.875,55 Z M465.666667,55 L465.666667,39.2857143 L481.333333,39.2857143 L481.333333,55 L497,55 L497,7.85714286 L489.166667,7.85714286 L489.166667,0 L457.833333,0 L457.833333,7.85714286 L450,7.85714286 L450,55 L465.666667,55 Z M479,32 L463,32 L463,8 L479,8 L479,32 Z M538.333333,55 L538.333333,7.85714286 L554,7.85714286 L554,0 L507,0 L507,7.85714286 L522.666667,7.85714286 L522.666667,55 L538.333333,55 Z M603,55 L603,47.1428571 L579.6,47.1428571 L579.6,7.85714286 L603,7.85714286 L603,0 L571.8,0 L571.8,7.85714286 L564,7.85714286 L564,47.1428571 L571.8,47.1428571 L571.8,55 L603,55 Z M613,16 L613,8 L605,8 L605,16 L613,16 Z M611,47 L611,39 L603,39 L603,47 L611,47 Z M638.666667,55 L638.666667,31.4285714 L654.333333,31.4285714 L654.333333,55 L670,55 L670,0 L654.333333,0 L654.333333,23.5714286 L638.666667,23.5714286 L638.666667,0 L623,0 L623,55 L638.666667,55 Z" id="COREMATCH"></path>
                <g id="icon">
                    <g id="right" transform="translate(70.000000, 0.000000)">
                        <polygon id="Path" points="9 18.05 9 8.8 0 8.8 0 18.05 0 27.3 0 36.55 0 45.8 9 45.8 9 36.55"></polygon>
                        <polygon id="Path" points="27 9 36 9 45 9 45 0 36 0 27 0 18 0 9 0 9 9 18 9"></polygon>
                        <polygon id="Path" points="27 45.8 18 45.8 9 45.8 9 54.8 18 54.8 27 54.8 36 54.8 45 54.8 45 45.8 36 45.8"></polygon>
                        <polygon id="Path" points="45 8.8 45 18.05 27 18.05 27 36.55 45 36.55 45 45.8 54 45.8 54 36.55 54 27.3 54 18.05 54 8.8"></polygon>
                    </g>
                    <g id="right">
                        <polygon id="Path" points="9 18.05 9 8.8 0 8.8 0 18.05 0 27.3 0 36.55 0 45.8 9 45.8 9 36.55"></polygon>
                        <polygon id="Path" points="27 9 36 9 45 9 45 0 36 0 27 0 18 0 9 0 9 9 18 9"></polygon>
                        <polygon id="Path" points="27 45.8 18 45.8 9 45.8 9 54.8 18 54.8 27 54.8 36 54.8 45 54.8 45 45.8 36 45.8"></polygon>
                        <polygon id="Path" points="45 8.8 45 18.05 27 18.05 27 36.55 45 36.55 45 45.8 54 45.8 54 36.55 54 27.3 54 18.05 54 8.8"></polygon>
                    </g>
                </g>
            </g>
        </g>
    </g>
</svg>