<?xml version="1.0" encoding="UTF-8"?>
<svg width="675px" height="88px" viewBox="0 0 675 88" version="1.1" xmlns="http://www.w3.org/2000/svg" xmlns:xlink="http://www.w3.org/1999/xlink">
    <title>corematch_logo_full</title>
    <g id="Page-1" stroke="none" stroke-width="1" fill="none" fill-rule="evenodd">
        <g id="Artboard" transform="translate(-195.000000, -389.000000)" fill="#000000">
            <g id="corematch_logo_full" transform="translate(195.000000, 389.000000)">
                <path d="M193,55 L193,47.1428571 L169.6,47.1428571 L169.6,7.85714286 L193,7.85714286 L193,0 L161.8,0 L161.8,7.85714286 L154,7.85714286 L154,47.1428571 L161.8,47.1428571 L161.8,55 L193,55 Z M201,16 L201,8 L193,8 L193,16 L201,16 Z M201,47 L201,39 L193,39 L193,47 L201,47 Z M250.166667,55 L250.166667,47.1428571 L258,47.1428571 L258,7.85714286 L250.166667,7.85714286 L250.166667,0 L218.833333,0 L218.833333,7.85714286 L211,7.85714286 L211,47.1428571 L218.833333,47.1428571 L218.833333,55 L250.166667,55 Z M243,47 L227,47 L227,8 L243,8 L243,47 Z M283.666667,55 L283.666667,39.2857143 L291.5,39.2857143 L291.5,47.1428571 L299.333333,47.1428571 L299.333333,55 L315,55 L315,47.1428571 L307.166667,47.1428571 L307.166667,31.4285714 L315,31.4285714 L315,7.85714286 L307.166667,7.85714286 L307.166667,0 L268,0 L268,55 L283.666667,55 Z M296,32 L280,32 L280,8 L296,8 L296,32 Z M372,55 L372,47.1428571 L340.666667,47.1428571 L340.666667,31.4285714 L356.333333,31.4285714 L356.333333,23.5714286 L340.666667,23.5714286 L340.666667,7.85714286 L372,7.85714286 L372,0 L325,0 L325,55 L372,55 Z M389.875,55 L389.875,23.5714286 L397.75,23.5714286 L397.75,31.4285714 L405.625,31.4285714 L405.625,39.2857143 L413.5,39.2857143 L413.5,31.4285714 L421.375,31.4285714 L421.375,23.5714286 L429.25,23.5714286 L429.25,55 L445,55 L445,0 L429.25,0 L429.25,7.85714286 L421.375,7.85714286 L421.375,15.7142857 L413.5,15.7142857 L413.5,23.5714286 L405.625,23.5714286 L405.625,15.7142857 L397.75,15.7142857 L397.75,7.85714286 L389.875,7.85714286 L389.875,0 L382,0 L382,55 L389.875,55 Z M470.666667,55 L470.666667,39.2857143 L486.333333,39.2857143 L486.333333,55 L502,55 L502,7.85714286 L494.166667,7.85714286 L494.166667,0 L462.833333,0 L462.833333,7.85714286 L455,7.85714286 L455,55 L470.666667,55 Z M484,32 L468,32 L468,8 L484,8 L484,32 Z M543.333333,55 L543.333333,7.85714286 L559,7.85714286 L559,0 L512,0 L512,7.85714286 L527.666667,7.85714286 L527.666667,55 L543.333333,55 Z M608,55 L608,47.1428571 L584.6,47.1428571 L584.6,7.85714286 L608,7.85714286 L608,0 L576.8,0 L576.8,7.85714286 L569,7.85714286 L569,47.1428571 L576.8,47.1428571 L576.8,55 L608,55 Z M618,16 L618,8 L610,8 L610,16 L618,16 Z M616,47 L616,39 L608,39 L608,47 L616,47 Z M643.666667,55 L643.666667,31.4285714 L659.333333,31.4285714 L659.333333,55 L675,55 L675,0 L659.333333,0 L659.333333,23.5714286 L643.666667,23.5714286 L643.666667,0 L628,0 L628,55 L643.666667,55 Z" id="COREMATCH" fill-rule="nonzero"></path>
                <g id="icon" fill-rule="nonzero">
                    <g id="right" transform="translate(70.000000, 0.000000)">
                        <polygon id="Path" points="9 18.05 9 8.8 0 8.8 0 18.05 0 27.3 0 36.55 0 45.8 9 45.8 9 36.55"></polygon>
                        <polygon id="Path" points="27 9 36 9 45 9 45 0 36 0 27 0 18 0 9 0 9 9 18 9"></polygon>
                        <polygon id="Path" points="27 45.8 18 45.8 9 45.8 9 54.8 18 54.8 27 54.8 36 54.8 45 54.8 45 45.8 36 45.8"></polygon>
                        <polygon id="Path" points="45 8.8 45 18.05 27 18.05 27 36.55 45 36.55 45 45.8 54 45.8 54 36.55 54 27.3 54 18.05 54 8.8"></polygon>
                    </g>
                    <g id="right">
                        <polygon id="Path" points="9 18.05 9 8.8 0 8.8 0 18.05 0 27.3 0 36.55 0 45.8 9 45.8 9 36.55"></polygon>
                        <polygon id="Path" points="27 9 36 9 45 9 45 0 36 0 27 0 18 0 9 0 9 9 18 9"></polygon>
                        <polygon id="Path" points="27 45.8 18 45.8 9 45.8 9 54.8 18 54.8 27 54.8 36 54.8 45 54.8 45 45.8 36 45.8"></polygon>
                        <polygon id="Path" points="45 8.8 45 18.05 27 18.05 27 36.55 45 36.55 45 45.8 54 45.8 54 36.55 54 27.3 54 18.05 54 8.8"></polygon>
                    </g>
                </g>
                <polygon id="line" points="10.0231394 77.0118837 10.0231394 73 316 73 316 77.0118837 306.006226 77.0118837 306.006226 82 0 82 0 77.0118837"></polygon>
                <path d="M338.75,82 L338.75,71.5 L337,71.5 L337,82 L338.75,82 Z M331.75,82 L331.75,71.5 L330,71.5 L330,82 L331.75,82 Z M337,83.75 L337,82 L331.75,82 L331.75,83.75 L337,83.75 Z M345.75,83.75 L345.75,73.25 L351,73.25 L351,71.5 L344,71.5 L344,83.75 L345.75,83.75 Z M352.75,83.75 L352.75,73.25 L351,73.25 L351,83.75 L352.75,83.75 Z M365,73.25 L365,71.5 L359.75,71.5 L359.75,73.25 L365,73.25 Z M359.75,76.75 L359.75,73.25 L358,73.25 L358,76.75 L359.75,76.75 Z M366.75,75 L366.75,73.25 L365,73.25 L365,75 L366.75,75 Z M365,78.5 L365,76.75 L359.75,76.75 L359.75,78.5 L365,78.5 Z M366.75,82 L366.75,78.5 L365,78.5 L365,82 L366.75,82 Z M359.75,82 L359.75,80.25 L358,80.25 L358,82 L359.75,82 Z M365,83.75 L365,82 L359.75,82 L359.75,83.75 L365,83.75 Z M377.25,82 L377.25,73.25 L380.75,73.25 L380.75,71.5 L377.25,71.5 L377.25,69.75 L375.5,69.75 L375.5,71.5 L373.75,71.5 L373.75,73.25 L375.5,73.25 L375.5,82 L377.25,82 Z M380.75,83.75 L380.75,82 L377.25,82 L377.25,83.75 L380.75,83.75 Z M393,73.25 L393,71.5 L387.75,71.5 L387.75,73.25 L393,73.25 Z M394.75,82 L394.75,73.25 L393,73.25 L393,82 L394.75,82 Z M387.75,82 L387.75,73.25 L386,73.25 L386,82 L387.75,82 Z M393,83.75 L393,82 L387.75,82 L387.75,83.75 L393,83.75 Z M401.75,87.25 L401.75,83.75 L407,83.75 L407,82 L401.75,82 L401.75,73.25 L407,73.25 L407,71.5 L400,71.5 L400,87.25 L401.75,87.25 Z M408.75,82 L408.75,73.25 L407,73.25 L407,82 L408.75,82 Z M415.75,87.25 L415.75,83.75 L421,83.75 L421,82 L415.75,82 L415.75,73.25 L421,73.25 L421,71.5 L414,71.5 L414,87.25 L415.75,87.25 Z M422.75,82 L422.75,73.25 L421,73.25 L421,82 L422.75,82 Z M435,73.25 L435,71.5 L429.75,71.5 L429.75,73.25 L435,73.25 Z M429.75,75 L429.75,73.25 L428,73.25 L428,75 L429.75,75 Z M429.75,78.5 L435,78.5 L435,82 L429.75,82 L429.75,78.5 Z M429.75,78.5 L428,78.5 L428,82 L429.75,82 L429.75,83.75 L436.75,83.75 L436.75,73.25 L435,73.25 L435,76.75 L429.75,76.75 L429.75,78.5 Z M449,83.75 L449,82 L443.75,82 L443.75,73.25 L449,73.25 L449,71.5 L443.75,71.5 L443.75,68 L442,68 L442,83.75 L449,83.75 Z M450.75,82 L450.75,73.25 L449,73.25 L449,82 L450.75,82 Z M464.75,83.75 L464.75,82 L461.25,82 L461.25,68 L456,68 L456,69.75 L459.5,69.75 L459.5,82 L456,82 L456,83.75 L464.75,83.75 Z M477,73.25 L477,71.5 L471.75,71.5 L471.75,73.25 L477,73.25 Z M471.75,82 L471.75,78.5 L478.75,78.5 L478.75,73.25 L477,73.25 L477,76.75 L471.75,76.75 L471.75,73.25 L470,73.25 L470,82 L471.75,82 Z M478.75,82 L478.75,80.25 L477,80.25 L477,82 L478.75,82 Z M477,83.75 L477,82 L471.75,82 L471.75,83.75 L477,83.75 Z M506.75,73.25 L506.75,71.5 L503.25,71.5 L503.25,73.25 L506.75,73.25 Z M498,83.75 L498,73.25 L501.5,73.25 L501.5,71.5 L496.25,71.5 L496.25,83.75 L498,83.75 Z M508.5,83.75 L508.5,73.25 L506.75,73.25 L506.75,83.75 L508.5,83.75 Z M503.25,80.25 L503.25,73.25 L501.5,73.25 L501.5,80.25 L503.25,80.25 Z M519,73.25 L519,71.5 L513.75,71.5 L513.75,73.25 L519,73.25 Z M513.75,75 L513.75,73.25 L512,73.25 L512,75 L513.75,75 Z M513.75,78.5 L519,78.5 L519,82 L513.75,82 L513.75,78.5 Z M513.75,78.5 L512,78.5 L512,82 L513.75,82 L513.75,83.75 L520.75,83.75 L520.75,73.25 L519,73.25 L519,76.75 L513.75,76.75 L513.75,78.5 Z M531.25,82 L531.25,73.25 L534.75,73.25 L534.75,71.5 L531.25,71.5 L531.25,69.75 L529.5,69.75 L529.5,71.5 L527.75,71.5 L527.75,73.25 L529.5,73.25 L529.5,82 L531.25,82 Z M534.75,83.75 L534.75,82 L531.25,82 L531.25,83.75 L534.75,83.75 Z M547,73.25 L547,71.5 L541.75,71.5 L541.75,73.25 L547,73.25 Z M541.75,82 L541.75,73.25 L540,73.25 L540,82 L541.75,82 Z M548.75,75 L548.75,73.25 L547,73.25 L547,75 L548.75,75 Z M548.75,82 L548.75,80.25 L547,80.25 L547,82 L548.75,82 Z M547,83.75 L547,82 L541.75,82 L541.75,83.75 L547,83.75 Z M555.75,83.75 L555.75,73.25 L561,73.25 L561,71.5 L555.75,71.5 L555.75,68 L554,68 L554,83.75 L555.75,83.75 Z M562.75,83.75 L562.75,73.25 L561,73.25 L561,83.75 L562.75,83.75 Z M573.25,69.75 L573.25,68 L571.5,68 L571.5,69.75 L573.25,69.75 Z M576.75,83.75 L576.75,82 L573.25,82 L573.25,71.5 L568,71.5 L568,73.25 L571.5,73.25 L571.5,82 L568,82 L568,83.75 L576.75,83.75 Z M583.75,83.75 L583.75,73.25 L589,73.25 L589,71.5 L582,71.5 L582,83.75 L583.75,83.75 Z M590.75,83.75 L590.75,73.25 L589,73.25 L589,83.75 L590.75,83.75 Z M597.75,73.25 L603,73.25 L603,80.25 L597.75,80.25 L597.75,73.25 Z M597.75,85.5 L597.75,83.75 L596,83.75 L596,85.5 L597.75,85.5 Z M603,87.25 L603,85.5 L597.75,85.5 L597.75,87.25 L603,87.25 Z M597.75,73.25 L596,73.25 L596,80.25 L597.75,80.25 L597.75,82 L603,82 L603,85.5 L604.75,85.5 L604.75,71.5 L597.75,71.5 L597.75,73.25 Z M625.75,73.25 L631,73.25 L631,80.25 L625.75,80.25 L625.75,73.25 Z M625.75,85.5 L625.75,83.75 L624,83.75 L624,85.5 L625.75,85.5 Z M631,87.25 L631,85.5 L625.75,85.5 L625.75,87.25 L631,87.25 Z M625.75,73.25 L624,73.25 L624,80.25 L625.75,80.25 L625.75,82 L631,82 L631,85.5 L632.75,85.5 L632.75,71.5 L625.75,71.5 L625.75,73.25 Z M645,73.25 L645,71.5 L639.75,71.5 L639.75,73.25 L645,73.25 Z M639.75,75 L639.75,73.25 L638,73.25 L638,75 L639.75,75 Z M639.75,78.5 L645,78.5 L645,82 L639.75,82 L639.75,78.5 Z M639.75,78.5 L638,78.5 L638,82 L639.75,82 L639.75,83.75 L646.75,83.75 L646.75,73.25 L645,73.25 L645,76.75 L639.75,76.75 L639.75,78.5 Z M660.75,73.25 L660.75,71.5 L657.25,71.5 L657.25,73.25 L660.75,73.25 Z M652,83.75 L652,73.25 L655.5,73.25 L655.5,71.5 L650.25,71.5 L650.25,83.75 L652,83.75 Z M662.5,83.75 L662.5,73.25 L660.75,73.25 L660.75,83.75 L662.5,83.75 Z M657.25,80.25 L657.25,73.25 L655.5,73.25 L655.5,80.25 L657.25,80.25 Z M673,73.25 L673,71.5 L667.75,71.5 L667.75,73.25 L673,73.25 Z M667.75,82 L667.75,78.5 L674.75,78.5 L674.75,73.25 L673,73.25 L673,76.75 L667.75,76.75 L667.75,73.25 L666,73.25 L666,82 L667.75,82 Z M674.75,82 L674.75,80.25 L673,80.25 L673,82 L674.75,82 Z M673,83.75 L673,82 L667.75,82 L667.75,83.75 L673,83.75 Z" id="motto" fill-rule="nonzero"></path>
            </g>
        </g>
    </g>
</svg>