<?xml version="1.0" encoding="UTF-8"?>
<svg width="722px" height="150px" viewBox="0 0 722 150" version="1.1" xmlns="http://www.w3.org/2000/svg" xmlns:xlink="http://www.w3.org/1999/xlink">
    <title>corematch_logo_polkadot</title>
    <g id="Page-1" stroke="none" stroke-width="1" fill="none" fill-rule="evenodd">
        <g id="Artboard" transform="translate(-319.000000, -113.000000)" fill-rule="nonzero">
            <g id="Group" transform="translate(318.000000, -3.000000)">
                <g id="corematch_logo_polkadot" transform="translate(1.000000, 116.000000)">
                    <path d="M54,0 L54,11 L21.6,11 L21.6,66 L54,66 L54,77 L10.8,77 L10.8,66 L0,66 L0,11 L10.8,11 L10.8,0 L54,0 Z M65,55 L65,66 L54,66 L54,55 L65,55 Z M65,11 L65,22 L54,22 L54,11 L65,11 Z M133.166667,0 L133.166667,11 L144,11 L144,66 L133.166667,66 L133.166667,77 L89.8333333,77 L89.8333333,66 L79,66 L79,11 L89.8333333,11 L89.8333333,0 L133.166667,0 Z M123,11 L101,11 L101,66 L123,66 L123,11 Z M213.166667,0 L213.166667,11 L224,11 L224,44 L213.166667,44 L213.166667,66 L224,66 L224,77 L202.333333,77 L202.333333,66 L191.5,66 L191.5,55 L180.666667,55 L180.666667,77 L159,77 L159,0 L213.166667,0 Z M198,11 L176,11 L176,45 L198,45 L198,11 Z M303,77 L303,66 L259.666667,66 L259.666667,44 L281.333333,44 L281.333333,33 L259.666667,33 L259.666667,11 L303,11 L303,0 L238,0 L238,77 L303,77 Z M328,77 L328,33 L339,33 L339,44 L350,44 L350,55 L361,55 L361,44 L372,44 L372,33 L383,33 L383,77 L405,77 L405,0 L383,0 L383,11 L372,11 L372,22 L361,22 L361,33 L350,33 L350,22 L339,22 L339,11 L328,11 L328,0 L317,0 L317,77 L328,77 Z M473.166667,0 L473.166667,11 L484,11 L484,77 L462.333333,77 L462.333333,55 L440.666667,55 L440.666667,77 L419,77 L419,11 L429.833333,11 L429.833333,0 L473.166667,0 Z M463,11 L441,11 L441,45 L463,45 L463,11 Z M564,0 L564,11 L542.333333,11 L542.333333,77 L520.666667,77 L520.666667,11 L499,11 L499,0 L564,0 Z M632,0 L632,11 L599.6,11 L599.6,66 L632,66 L632,77 L588.8,77 L588.8,66 L578,66 L578,11 L588.8,11 L588.8,0 L632,0 Z M643,55 L643,66 L632,66 L632,55 L643,55 Z M643,11 L643,22 L632,22 L632,11 L643,11 Z M678.666667,77 L678.666667,44 L700.333333,44 L700.333333,77 L722,77 L722,0 L700.333333,0 L700.333333,33 L678.666667,33 L678.666667,0 L657,0 L657,77 L678.666667,77 Z" id="COREMATCH" fill="#22262A"></path>
                    <g id="motto" transform="translate(42.000000, 102.000000)">
                        <path d="M11.25,33.5 L11.25,36.3125 L2.8125,36.3125 L2.8125,33.5 L11.25,33.5 Z M14.0625,11 L14.0625,33.5 L11.25,33.5 L11.25,11 L14.0625,11 Z M2.8125,11 L2.8125,33.5 L0,33.5 L0,11 L2.8125,11 Z M39.0625,11 L39.0625,36.3125 L36.25,36.3125 L36.25,27.875 L33.4375,27.875 L33.4375,25.0625 L36.25,25.0625 L36.25,11 L39.0625,11 Z M27.8125,11 L27.8125,19.4375 L30.625,19.4375 L30.625,22.25 L27.8125,22.25 L27.8125,36.3125 L25,36.3125 L25,11 L27.8125,11 Z M33.4375,22.25 L33.4375,25.0625 L30.625,25.0625 L30.625,22.25 L33.4375,22.25 Z M62.25,33.5 L62.25,36.3125 L53.8125,36.3125 L53.8125,33.5 L62.25,33.5 Z M65.0625,25.0625 L65.0625,33.5 L62.25,33.5 L62.25,25.0625 L65.0625,25.0625 Z M53.8125,30.6875 L53.8125,33.5 L51,33.5 L51,30.6875 L53.8125,30.6875 Z M62.25,22.25 L62.25,25.0625 L53.8125,25.0625 L53.8125,22.25 L62.25,22.25 Z M53.8125,13.8125 L53.8125,22.25 L51,22.25 L51,13.8125 L53.8125,13.8125 Z M65.0625,13.8125 L65.0625,16.625 L62.25,16.625 L62.25,13.8125 L65.0625,13.8125 Z M62.25,11 L62.25,13.8125 L53.8125,13.8125 L53.8125,11 L62.25,11 Z M84.4375,36.3125 L84.4375,13.8125 L90.0625,13.8125 L90.0625,11 L76,11 L76,13.8125 L81.625,13.8125 L81.625,36.3125 L84.4375,36.3125 Z M112.25,33.5 L112.25,36.3125 L103.8125,36.3125 L103.8125,33.5 L112.25,33.5 Z M115.0625,13.8125 L115.0625,33.5 L112.25,33.5 L112.25,13.8125 L115.0625,13.8125 Z M103.8125,13.8125 L103.8125,33.5 L101,33.5 L101,13.8125 L103.8125,13.8125 Z M112.25,11 L112.25,13.8125 L103.8125,13.8125 L103.8125,11 L112.25,11 Z M138.25,11 L138.25,13.8125 L129.8125,13.8125 L129.8125,22.25 L138.25,22.25 L138.25,25.0625 L129.8125,25.0625 L129.8125,36.3125 L127,36.3125 L127,11 L138.25,11 Z M141.0625,13.8125 L141.0625,22.25 L138.25,22.25 L138.25,13.8125 L141.0625,13.8125 Z M163.25,11 L163.25,13.8125 L154.8125,13.8125 L154.8125,22.25 L163.25,22.25 L163.25,25.0625 L154.8125,25.0625 L154.8125,36.3125 L152,36.3125 L152,11 L163.25,11 Z M166.0625,13.8125 L166.0625,22.25 L163.25,22.25 L163.25,13.8125 L166.0625,13.8125 Z M179.8125,13.8125 L179.8125,25.0625 L188.25,25.0625 L188.25,13.8125 L191.0625,13.8125 L191.0625,36.3125 L188.25,36.3125 L188.25,27.875 L179.8125,27.875 L179.8125,36.3125 L177,36.3125 L177,13.8125 L179.8125,13.8125 Z M188.25,11 L188.25,13.8125 L179.8125,13.8125 L179.8125,11 L188.25,11 Z M213.25,11 L213.25,13.8125 L204.8125,13.8125 L204.8125,22.25 L213.25,22.25 L213.25,25.0625 L204.8125,25.0625 L204.8125,33.5 L213.25,33.5 L213.25,36.3125 L202,36.3125 L202,11 L213.25,11 Z M216.0625,25.0625 L216.0625,33.5 L213.25,33.5 L213.25,25.0625 L216.0625,25.0625 Z M216.0625,13.8125 L216.0625,22.25 L213.25,22.25 L213.25,13.8125 L216.0625,13.8125 Z M242.0625,36.3125 L242.0625,33.5 L230.8125,33.5 L230.8125,11 L228,11 L228,36.3125 L242.0625,36.3125 Z M267.0625,36.3125 L267.0625,33.5 L255.8125,33.5 L255.8125,25.0625 L261.4375,25.0625 L261.4375,22.25 L255.8125,22.25 L255.8125,13.8125 L267.0625,13.8125 L267.0625,11 L253,11 L253,36.3125 L267.0625,36.3125 Z" id="UNSTOPPABLE" fill="#22262A"></path>
                        <path d="M312.25,11 L312.25,13.8125 L303.8125,13.8125 L303.8125,22.25 L312.25,22.25 L312.25,25.0625 L303.8125,25.0625 L303.8125,33.5 L312.25,33.5 L312.25,36.3125 L301,36.3125 L301,11 L312.25,11 Z M315.0625,25.0625 L315.0625,33.5 L312.25,33.5 L312.25,25.0625 L315.0625,25.0625 Z M315.0625,13.8125 L315.0625,22.25 L312.25,22.25 L312.25,13.8125 L315.0625,13.8125 Z M333.4375,22.25 L333.4375,36.3125 L330.625,36.3125 L330.625,22.25 L333.4375,22.25 Z M336.25,19.4375 L336.25,22.25 L333.4375,22.25 L333.4375,19.4375 L336.25,19.4375 Z M330.625,19.4375 L330.625,22.25 L327.8125,22.25 L327.8125,19.4375 L330.625,19.4375 Z M339.0625,11 L339.0625,19.4375 L336.25,19.4375 L336.25,11 L339.0625,11 Z M327.8125,11 L327.8125,19.4375 L325,19.4375 L325,11 L327.8125,11 Z" id="BY" fill="#22262A"></path>
                        <path d="M471.25,11 L471.25,13.8125 L462.8125,13.8125 L462.8125,22.25 L471.25,22.25 L471.25,25.0625 L462.8125,25.0625 L462.8125,36.3125 L460,36.3125 L460,11 L471.25,11 Z M495.25,33.5 L495.25,36.3125 L486.8125,36.3125 L486.8125,33.5 L495.25,33.5 Z M510.8125,11 L510.8125,33.5 L522.0625,33.5 L522.0625,36.3125 L508,36.3125 L508,11 L510.8125,11 Z M498.0625,13.8125 L498.0625,33.5 L495.25,33.5 L495.25,13.8125 L498.0625,13.8125 Z M486.8125,13.8125 L486.8125,33.5 L484,33.5 L484,13.8125 L486.8125,13.8125 Z M474.0625,13.8125 L474.0625,22.25 L471.25,22.25 L471.25,13.8125 L474.0625,13.8125 Z M495.25,11 L495.25,13.8125 L486.8125,13.8125 L486.8125,11 L495.25,11 Z M534.8125,11 L534.8125,22.25 L537.625,22.25 L537.625,25.0625 L534.8125,25.0625 L534.8125,36.3125 L532,36.3125 L532,11 L534.8125,11 Z M546.0625,30.6875 L546.0625,36.3125 L543.25,36.3125 L543.25,30.6875 L546.0625,30.6875 Z M558.8125,13.8125 L558.8125,25.0625 L567.25,25.0625 L567.25,13.8125 L570.0625,13.8125 L570.0625,36.3125 L567.25,36.3125 L567.25,27.875 L558.8125,27.875 L558.8125,36.3125 L556,36.3125 L556,13.8125 L558.8125,13.8125 Z M543.25,27.875 L543.25,30.6875 L540.4375,30.6875 L540.4375,27.875 L543.25,27.875 Z M540.4375,25.0625 L540.4375,27.875 L537.625,27.875 L537.625,25.0625 L540.4375,25.0625 Z M540.4375,19.4375 L540.4375,22.25 L537.625,22.25 L537.625,19.4375 L540.4375,19.4375 Z M543.25,16.625 L543.25,19.4375 L540.4375,19.4375 L540.4375,16.625 L543.25,16.625 Z M546.0625,11 L546.0625,16.625 L543.25,16.625 L543.25,11 L546.0625,11 Z M567.25,11 L567.25,13.8125 L558.8125,13.8125 L558.8125,11 L567.25,11 Z M591.25,11 L591.25,13.8125 L582.8125,13.8125 L582.8125,33.5 L591.25,33.5 L591.25,36.3125 L580,36.3125 L580,11 L591.25,11 Z M615.25,33.5 L615.25,36.3125 L606.8125,36.3125 L606.8125,33.5 L615.25,33.5 Z M642.0625,11 L642.0625,13.8125 L636.4375,13.8125 L636.4375,36.3125 L633.625,36.3125 L633.625,13.8125 L628,13.8125 L628,11 L642.0625,11 Z M594.0625,13.8125 L594.0625,33.5 L591.25,33.5 L591.25,13.8125 L594.0625,13.8125 Z M618.0625,13.8125 L618.0625,33.5 L615.25,33.5 L615.25,13.8125 L618.0625,13.8125 Z M606.8125,13.8125 L606.8125,33.5 L604,33.5 L604,13.8125 L606.8125,13.8125 Z M615.25,11 L615.25,13.8125 L606.8125,13.8125 L606.8125,11 L615.25,11 Z" id="POLKADOT" fill="#22262A"></path>
                        <g id="polkadto_logo" transform="translate(374.000000, 0.000000)" fill="#E6007A">
                            <ellipse id="Oval" cx="26.5" cy="5" rx="8.5" ry="5"></ellipse>
                            <ellipse id="Oval" cx="26.5" cy="43" rx="8.5" ry="5"></ellipse>
                            <ellipse id="Oval" transform="translate(9.654213, 14.497166) rotate(-60.000000) translate(-9.654213, -14.497166) " cx="9.65421343" cy="14.4971656" rx="8.65758347" ry="5.02047335"></ellipse>
                            <ellipse id="Oval" transform="translate(42.346017, 33.500760) rotate(-60.000000) translate(-42.346017, -33.500760) " cx="42.3460168" cy="33.5007604" rx="8.65758347" ry="5.02047335"></ellipse>
                            <ellipse id="Oval" transform="translate(9.654206, 33.500524) rotate(-30.000000) translate(-9.654206, -33.500524) " cx="9.65420616" cy="33.5005236" rx="5.02047335" ry="8.65758347"></ellipse>
                            <ellipse id="Oval" transform="translate(42.345821, 14.497321) rotate(-30.000000) translate(-42.345821, -14.497321) " cx="42.3458212" cy="14.4973207" rx="5.02047335" ry="8.65758347"></ellipse>
                        </g>
                    </g>
                </g>
            </g>
        </g>
    </g>
</svg>