<?xml version="1.0" encoding="UTF-8"?>
<svg width="220px" height="1042px" viewBox="0 0 220 1042" version="1.1" xmlns="http://www.w3.org/2000/svg" xmlns:xlink="http://www.w3.org/1999/xlink">
    <title>Polkadot_Logo_Horizontal_Pink-Black</title>
    <g id="Page-1" stroke="none" stroke-width="1" fill="none" fill-rule="evenodd">
        <g id="Artboard" transform="translate(0.000000, 1.000000)" fill-rule="nonzero">
            <g id="Polkadot_Logo_Horizontal_Pink-Black" transform="translate(110.000000, 520.447761) rotate(-90.000000) translate(-110.000000, -520.447761) translate(-410.447761, 410.447761)">
                <path d="M331.122095,32.8358209 C319.111227,32.8358209 307.535986,34.3535771 302.821876,35.6366287 C295.960745,37.5768532 294.249352,40.5967186 292.958028,46.855507 L265.731318,173.204799 C265.295691,175.786549 264.875622,177.945831 264.875622,180.105113 C264.875622,186.363902 268.951849,190.447761 275.595166,190.447761 C282.891924,190.447761 285.894642,185.706729 287.388221,178.368299 L295.105048,142.364619 C300.457041,143.006145 307.535986,143.663317 317.617647,143.663317 C362.004963,143.663317 389.651741,119.520041 389.651741,83.0782452 C389.651741,51.1584241 367.559211,32.8358209 331.122095,32.8358209 Z M316.544137,122.962375 C309.683006,122.962375 304.315455,122.743317 299.399089,122.101791 L313.759234,55.0388729 C318.25553,54.3973471 324.914406,53.5211167 331.775536,53.5211167 C355.361646,53.5211167 367.372514,64.7399951 367.372514,83.2816559 C367.356956,107.002464 350.19635,122.962375 316.544137,122.962375 L316.544137,122.962375 Z" id="Shape" fill="#000000"></path>
                <path d="M1031.44674,149.084546 C1027.7601,149.084546 1025.36536,151.236036 1020.81219,156.178227 C1012.7772,164.347654 1007.7829,168.853311 1001.49669,168.853311 C995.856443,168.853311 992.815749,164.347654 992.815749,157.035705 C992.815749,152.950992 993.682268,148.008801 994.769356,142.645666 L1002.80435,105.259626 L1026.90934,105.259626 C1034.50319,105.259626 1039.07211,100.956646 1039.07211,93.2237534 C1039.07211,88.920773 1036.25199,85.7091282 1029.74522,85.7091282 L1007.13695,85.7091282 L1011.04416,68.3101206 C1011.4853,65.7376866 1011.91068,63.3679293 1011.91068,61.2164391 C1011.91068,55.1985028 1007.7829,50.8955224 1001.05556,50.8955224 C993.887082,50.8955224 990.641574,55.6194465 989.11335,62.9313951 L984.119049,85.7091282 L973.909879,85.7091282 C966.095452,85.7091282 961.542289,90.0121086 961.542289,97.7450009 C961.542289,102.047981 964.582983,105.259626 971.089753,105.259626 L979.991267,105.259626 L971.956272,142.209132 C971.089753,146.293845 970.002666,152.950992 970.002666,159.826406 C970.002666,177.225414 979.124748,189.900498 998.660814,189.900498 C1009.95707,189.900498 1019.92992,184.319095 1027.53953,177.646358 C1034.92858,171.207478 1040.34826,163.256318 1040.34826,158.09586 C1040.34826,153.169259 1036.44105,149.084546 1031.44674,149.084546 Z" id="Path" fill="#000000"></path>
                <path d="M536.865672,44.8182368 C536.865672,38.5701251 532.592572,34.4776119 525.981654,34.4776119 C518.937233,34.4776119 515.74789,39.2105565 514.246113,46.5364675 L487.585688,171.592423 C486.950916,174.169769 486.517413,176.325367 486.517413,178.480966 C486.517413,184.729077 490.790512,188.80597 497.184679,188.80597 C504.445852,188.80597 507.635194,184.073026 509.136972,176.747115 L535.797397,51.7067799 C536.2309,49.1138135 536.865672,46.9738353 536.865672,44.8182368 Z" id="Path" fill="#000000"></path>
                <path d="M919.852069,82.8240362 C885.455728,82.8240362 862.025658,117.037679 862.025658,149.533613 C862.025658,150.142619 862.041257,150.751625 862.056856,151.345015 C856.659517,159.543173 849.764649,168.038025 845.038077,168.038025 C841.606243,168.038025 840.311505,164.805609 840.311505,159.855483 C840.311505,153.827886 842.027422,143.709017 843.961729,134.886239 L861.807268,52.2488136 C862.244047,49.6722499 862.665227,47.5173057 862.665227,45.3623615 C862.665227,39.1161465 858.578224,35.0248756 851.917345,35.0248756 C844.601298,35.0248756 841.606243,39.7563835 840.093116,47.0800707 L830.421582,91.8342015 C825.258231,86.4624565 817.723794,82.7928052 806.336344,82.7928052 C783.499045,82.7928052 760.521353,100.391516 751.567385,127.390781 C741.708661,152.906569 732.895086,168.006794 725.937821,168.006794 C723.363945,168.006794 721.850818,165.85185 721.850818,162.197814 C721.850818,151.438709 727.872128,125.18899 730.446004,112.493558 C731.303963,107.76205 731.740741,105.825723 731.740741,103.030542 C731.740741,93.5675261 716.047898,82.3711857 695.628483,82.3711857 C672.011222,82.3711857 650.624654,97.3464862 639.907971,119.583012 C623.981139,147.753442 609.364644,168.006794 602.126593,168.006794 C598.897549,168.006794 597.8212,163.915523 596.963242,160.04287 L591.6127,130.388964 L624.495914,103.499008 C627.506569,100.922444 631.375182,97.252793 631.375182,92.5212851 C631.375182,86.7123051 627.506569,82.8396518 621.703649,82.8396518 C617.398256,82.8396518 613.748032,85.4162155 610.097808,88.4300143 L560.663793,129.311492 L577.214594,52.2800447 C577.651373,49.703481 578.290942,47.5485368 578.290942,45.3935926 C578.290942,39.1473776 573.98555,35.0561067 567.324671,35.0561067 C560.227014,35.0561067 557.013569,39.7876146 555.500442,47.1113017 L528.638537,172.129296 C527.998968,174.70586 527.562189,176.860804 527.562189,179.015748 C527.562189,185.261963 531.867581,189.337618 538.310071,189.337618 C545.626118,189.337618 548.839563,184.60611 550.35269,177.282423 L553.800124,161.151573 L574.001149,144.802105 L578.946111,169.755734 C580.880417,179.655985 586.043768,189.337618 599.365526,189.337618 C612.624886,189.337618 623.060783,177.219961 633.512279,160.839262 C636.678926,178.000738 648.877538,189.337618 665.802722,189.337618 C682.790302,189.337618 694.396143,179.21875 701.91498,165.664463 L701.91498,166.101698 C701.91498,180.09322 709.012638,189.337618 721.476436,189.337618 C732.754693,189.337618 742.114241,182.529244 750.475438,168.069256 C755.217609,180.670995 765.825098,189.337618 780.581986,189.337618 C797.990746,189.337618 810.454545,178.79713 818.410161,164.165372 L818.410161,165.461461 C818.410161,180.952075 826.147388,189.353234 838.829577,189.353234 C850.029836,189.353234 859.545377,182.841555 867.672585,172.25422 C873.849887,182.841555 884.925353,189.353234 899.885032,189.353234 C934.281373,189.353234 957.711443,155.139591 957.711443,122.42504 C957.695844,99.3921217 943.718918,82.8240362 919.852069,82.8240362 Z M705.549605,126.51631 C699.309906,153.406266 685.988148,168.693878 670.934874,168.693878 C660.826562,168.693878 655.242031,160.948571 655.242031,149.330611 C655.242031,126.51631 671.792833,101.984301 693.928165,101.984301 C700.589044,101.984301 705.752395,103.920628 710.260577,106.715809 L705.549605,126.51631 Z M825.27383,115.116968 C818.394562,146.754047 802.701719,168.693878 785.511348,168.693878 C776.058204,168.693878 770.458074,161.37019 770.458074,149.330611 C770.458074,126.313308 786.369307,102.421536 807.64668,102.421536 C815.820686,102.421536 822.044786,105.216717 826.568568,108.870753 L825.27383,115.116968 Z M902.443308,168.693878 C889.97951,168.693878 884.816159,159.652481 884.816159,148.253139 C884.816159,127.375165 899.214264,103.499008 917.278193,103.499008 C929.741992,103.499008 934.905343,112.540404 934.905343,123.939747 C934.905343,145.020723 920.507237,168.693878 902.443308,168.693878 Z" id="Shape" fill="#000000"></path>
                <path d="M442.954082,82.6368159 C408.319038,82.6368159 384.726368,116.739824 384.726368,149.130677 C384.726368,172.29146 398.800291,188.80597 422.817063,188.80597 C457.452107,188.80597 481.044776,154.702962 481.044776,122.094198 C481.044776,99.1513259 466.970853,82.6368159 442.954082,82.6368159 Z M425.424508,168.228984 C412.874213,168.228984 407.67503,159.216825 407.67503,147.854344 C407.67503,127.043882 422.173055,103.244932 440.362344,103.244932 C452.912638,103.244932 458.111822,112.257092 458.111822,123.619573 C458.096114,144.63238 443.598089,168.228984 425.424508,168.228984 Z" id="Shape" fill="#000000"></path>
                <ellipse id="Oval" fill="#E6007A" cx="114.925373" cy="22.9850746" rx="39.4029851" ry="22.9850746"></ellipse>
                <ellipse id="Oval" fill="#E6007A" cx="114.925373" cy="197.014925" rx="39.4029851" ry="22.9850746"></ellipse>
                <ellipse id="Oval" fill="#E6007A" transform="translate(39.832744, 66.422299) rotate(-59.999272) translate(-39.832744, -66.422299) " cx="39.8327441" cy="66.422299" rx="39.6656997" ry="23.0800637"></ellipse>
                <ellipse id="Oval" fill="#E6007A" transform="translate(190.320760, 153.343017) rotate(-59.999272) translate(-190.320760, -153.343017) " cx="190.32076" cy="153.343017" rx="39.6656997" ry="23.064469"></ellipse>
                <ellipse id="Oval" fill="#E6007A" transform="translate(39.838264, 153.337729) rotate(-30.000728) translate(-39.838264, -153.337729) " cx="39.8382641" cy="153.337729" rx="23.0800637" ry="39.6656997"></ellipse>
                <ellipse id="Oval" fill="#E6007A" transform="translate(190.330100, 66.427353) rotate(-30.000728) translate(-190.330100, -66.427353) " cx="190.3301" cy="66.4273534" rx="23.064469" ry="39.6656997"></ellipse>
            </g>
        </g>
    </g>
</svg>