<?xml version="1.0" encoding="UTF-8"?>
<svg width="60px" height="60px" viewBox="0 0 60 60" version="1.1" xmlns="http://www.w3.org/2000/svg" xmlns:xlink="http://www.w3.org/1999/xlink">
    <title>start_icon</title>
    <g id="Page-1" stroke="none" stroke-width="1" fill="none" fill-rule="evenodd">
        <g id="Desktop" transform="translate(-1384.000000, -12.000000)" fill-rule="nonzero">
            <g id="start_icon" transform="translate(1384.000000, 12.000000)">
                <rect id="Rectangle" fill="#22262A" x="0" y="0" width="60" height="60" rx="4"></rect>
                <path d="M33,40 L33,35 L28,35 L28,40 L29.6532734,40 L33,40 Z M38,35 L38,30 L23,30 L23,35 L27.9598201,35 L38,35 Z M43,30 L43,25 L18,25 L18,30 L26.2663668,30 L43,30 Z M48,25 L48,20 L13,20 L13,25 L24.5729135,25 L48,25 Z" id="icon" fill="#FFFFFF" transform="translate(30.500000, 30.000000) rotate(-90.000000) translate(-30.500000, -30.000000) "></path>
            </g>
        </g>
    </g>
</svg>