<?xml version="1.0" encoding="UTF-8"?>
<svg width="621px" height="55px" viewBox="0 0 621 55" version="1.1" xmlns="http://www.w3.org/2000/svg" xmlns:xlink="http://www.w3.org/1999/xlink">
    <style type="text/css">
        <![CDATA[
            .iris__left,
            .iris__right {
                animation: mymove 20s ease-out 5s infinite;
            }

            @keyframes mymove {
                0%   {transform: translate(0, 0);}
                9%   {transform: translate(0, 0);}
                10%   {transform: translate(0, 9px);}
                19%   {transform: translate(0, 9px);}
                20%   {transform: translate(9px, 9px);}
                29%   {transform: translate(9px, 9px);}
                30%   {transform: translate(-9px, 9px);}
                39%   {transform: translate(-9px, 9px);}
                40%   {transform: translate(-9px, -9px);}
                59%   {transform: translate(-9px, -9px);}
                60%   {transform: translate(-9px, 0);}
                69%   {transform: translate(-9px, 0);}
                70%   {transform: translate(9px, 0);}
                71%   {transform: translate(9px, 0);}
                72%   {transform: translate(-9px, 0);}
                79%   {transform: translate(-9px, 0);}
                80%   {transform: translate(0, 0);}
                89%   {transform: translate(0, 0);}
                90%   {transform: translate(0, -9px);}
                99%   {transform: translate(0, -9px);}
            } 
        ]]>
    </style>
    <g stroke="none" stroke-width="1" fill="none" fill-rule="evenodd">
        <g transform="translate(-700.000000, -115.000000)" fill="#000000" fill-rule="nonzero">
            <g transform="translate(700.000000, 115.000000)">
                <g id="right" transform="translate(70.000000, 0.000000)">
                    <polygon class="iris__right" id="Path" points="27 37 31.5 37 36 37 36 18 31.5 18 27 18 22.5 18 18 18 18 37 22.5 37"></polygon>
                    <polygon id="Path" points="9 27.3 9 18.05 9 8.8 0 8.8 0 18.05 0 27.3 0 36.55 0 45.8 9 45.8 9 36.55"></polygon>
                    <polygon id="Path" points="27 9 36 9 45 9 45 0 36 0 27 0 18 0 9 0 9 9 18 9"></polygon>
                    <polygon id="Path" points="27 45.8 18 45.8 9 45.8 9 54.8 18 54.8 27 54.8 36 54.8 45 54.8 45 45.8 36 45.8"></polygon>
                    <polygon id="Path" points="45 8.8 45 18.05 45 27.3 45 36.55 45 45.8 54 45.8 54 36.55 54 27.3 54 18.05 54 8.8"></polygon>
                </g>
                <g id="left">
                    <polygon class="iris__left" id="Path" points="27 37 31.5 37 36 37 36 18 31.5 18 27 18 22.5 18 18 18 18 37 22.5 37"></polygon>
                    <polygon id="Path" points="9 27.3 9 18.05 9 8.8 0 8.8 0 18.05 0 27.3 0 36.55 0 45.8 9 45.8 9 36.55"></polygon>
                    <polygon id="Path" points="27 9 36 9 45 9 45 0 36 0 27 0 18 0 9 0 9 9 18 9"></polygon>
                    <polygon id="Path" points="27 45.8 18 45.8 9 45.8 9 54.8 18 54.8 27 54.8 36 54.8 45 54.8 45 45.8 36 45.8"></polygon>
                    <polygon id="Path" points="45 8.8 45 18.05 45 27.3 45 36.55 45 45.8 54 45.8 54 36.55 54 27.3 54 18.05 54 8.8"></polygon>
                </g>
                <path d="M196,55 L196,23.5714286 L172.5,23.5714286 L172.5,31.4285714 L180.333333,31.4285714 L180.333333,47.1428571 L164.666667,47.1428571 L164.666667,7.85714286 L188.166667,7.85714286 L188.166667,0 L156.833333,0 L156.833333,7.85714286 L149,7.85714286 L149,47.1428571 L156.833333,47.1428571 L156.833333,55 L196,55 Z M196,16 L196,8 L188,8 L188,16 L196,16 Z M221.666667,55 L221.666667,39.2857143 L237.333333,39.2857143 L237.333333,55 L253,55 L253,7.85714286 L245.166667,7.85714286 L245.166667,0 L213.833333,0 L213.833333,7.85714286 L206,7.85714286 L206,55 L221.666667,55 Z M243,32 L227,32 L227,8 L243,8 L243,32 Z M270.875,55 L270.875,23.5714286 L278.75,23.5714286 L278.75,31.4285714 L286.625,31.4285714 L286.625,39.2857143 L294.5,39.2857143 L294.5,31.4285714 L302.375,31.4285714 L302.375,23.5714286 L310.25,23.5714286 L310.25,55 L326,55 L326,0 L310.25,0 L310.25,7.85714286 L302.375,7.85714286 L302.375,15.7142857 L294.5,15.7142857 L294.5,23.5714286 L286.625,23.5714286 L286.625,15.7142857 L278.75,15.7142857 L278.75,7.85714286 L270.875,7.85714286 L270.875,0 L263,0 L263,55 L270.875,55 Z M383,55 L383,47.1428571 L351.666667,47.1428571 L351.666667,31.4285714 L367.333333,31.4285714 L367.333333,23.5714286 L351.666667,23.5714286 L351.666667,7.85714286 L383,7.85714286 L383,0 L336,0 L336,55 L383,55 Z M442.166667,55 L442.166667,47.1428571 L450,47.1428571 L450,7.85714286 L442.166667,7.85714286 L442.166667,0 L410.833333,0 L410.833333,7.85714286 L403,7.85714286 L403,47.1428571 L410.833333,47.1428571 L410.833333,55 L442.166667,55 Z M434,47 L418,47 L418,8 L434,8 L434,47 Z M507,39 L507,0 L499,0 L499,39 L507,39 Z M491,55 L491,47.1428571 L483.25,47.1428571 L483.25,39.2857143 L475.5,39.2857143 L475.5,0 L460,0 L460,39.2857143 L467.75,39.2857143 L467.75,47.1428571 L475.5,47.1428571 L475.5,55 L491,55 Z M499,47 L499,39 L491,39 L491,47 L499,47 Z M564,55 L564,47.1428571 L532.666667,47.1428571 L532.666667,31.4285714 L548.333333,31.4285714 L548.333333,23.5714286 L532.666667,23.5714286 L532.666667,7.85714286 L564,7.85714286 L564,0 L517,0 L517,55 L564,55 Z M589.666667,55 L589.666667,39.2857143 L597.5,39.2857143 L597.5,47.1428571 L605.333333,47.1428571 L605.333333,55 L621,55 L621,47.1428571 L613.166667,47.1428571 L613.166667,31.4285714 L621,31.4285714 L621,7.85714286 L613.166667,7.85714286 L613.166667,0 L574,0 L574,55 L589.666667,55 Z M606,32 L590,32 L590,8 L606,8 L606,32 Z" id="GAMEOVER"></path>
            </g>
        </g>
    </g>
</svg>