<?xml version="1.0" encoding="UTF-8"?>
<svg width="60px" height="60px" viewBox="0 0 60 60" version="1.1" xmlns="http://www.w3.org/2000/svg" xmlns:xlink="http://www.w3.org/1999/xlink">
    <title>level1_icon</title>
    <g id="Page-1" stroke="none" stroke-width="1" fill="none" fill-rule="evenodd">
        <g id="Desktop" transform="translate(-1209.000000, -12.000000)" fill-rule="nonzero">
            <g id="level1_icon" transform="translate(1209.000000, 12.000000)">
                <rect id="Rectangle" fill="#212529" x="0" y="0" width="60" height="60" rx="4"></rect>
                <path d="M22.5,32.5 L22.5,27.5 L17.5,27.5 L17.5,32.5 L19.1532734,32.5 L22.5,32.5 Z M22.5,42.5 L22.5,37.5 L17.5,37.5 L17.5,42.5 L19.1532734,42.5 L22.5,42.5 Z M32.5,42.5 L32.5,37.5 L27.5,37.5 L27.5,42.5 L29.1532734,42.5 L32.5,42.5 Z M42.5,42.5 L42.5,37.5 L37.5,37.5 L37.5,42.5 L39.1532734,42.5 L42.5,42.5 Z M32.5,32.5 L32.5,27.5 L27.5,27.5 L27.5,32.5 L29.1532734,32.5 L32.5,32.5 Z M22.5,22.5 L22.5,17.5 L17.5,17.5 L17.5,22.5 L19.1532734,22.5 L22.5,22.5 Z M32.5,22.5 L32.5,17.5 L27.5,17.5 L27.5,22.5 L29.1532734,22.5 L32.5,22.5 Z M42.5,22.5 L42.5,17.5 L37.5,17.5 L37.5,22.5 L39.1532734,22.5 L42.5,22.5 Z M42.5,32.5 L42.5,27.5 L37.5,27.5 L37.5,32.5 L39.1532734,32.5 L42.5,32.5 Z" id="icon" fill="#FFFFFF" transform="translate(30.000000, 30.000000) rotate(-90.000000) translate(-30.000000, -30.000000) "></path>
            </g>
        </g>
    </g>
</svg>