<?xml version="1.0" encoding="UTF-8"?>
<svg width="60px" height="60px" viewBox="0 0 60 60" version="1.1" xmlns="http://www.w3.org/2000/svg" xmlns:xlink="http://www.w3.org/1999/xlink">
    <title>turboflakes_icon</title>
    <g id="Page-1" stroke="none" stroke-width="1" fill="none" fill-rule="evenodd">
        <g id="Desktop" transform="translate(-95.000000, -862.000000)" fill-rule="nonzero">
            <g id="turboflakes_icon" transform="translate(95.000000, 862.000000)">
                <rect id="Rectangle" fill="#22262A" x="0" y="0" width="60" height="60" rx="4"></rect>
                <path d="M20,46 C17.2399393,46 15,43.7600607 15,41 C15,38.2399393 17.2399393,36 20,36 C22.7600607,36 25,38.2399393 25,41 C25,43.7600607 22.7600607,46 20,46 Z M32.0751821,35 C29.3566227,35 18,30 18,30 C18,30 29.3566227,25 32.0751821,25 C34.7937414,25 37,27.2399393 37,30 C37,32.7600607 34.7974808,35 32.0751821,35 Z M39.777954,24 C36.8953212,24 20,19 20,19 C20,19 36.8913561,14 39.777954,14 C42.6645519,14 45,16.2399393 45,19 C45,21.7600607 42.6645519,24 39.777954,24 Z" id="Shape" fill="#FFFFFF"></path>
            </g>
        </g>
    </g>
</svg>