<?xml version="1.0" encoding="UTF-8"?>
<svg width="855px" height="56px" viewBox="0 0 855 56" version="1.1" xmlns="http://www.w3.org/2000/svg" xmlns:xlink="http://www.w3.org/1999/xlink">
    <style type="text/css">
        <![CDATA[
            .iris__left,
            .iris__right {
                animation: eyes_movement 20s ease-out 5s infinite;
            }

            @keyframes eyes_movement {
                0%   {transform: translate(0, 0);}
                9%   {transform: translate(0, 0);}
                10%   {transform: translate(0, 9px);}
                19%   {transform: translate(0, 9px);}
                20%   {transform: translate(9px, 9px);}
                29%   {transform: translate(9px, 9px);}
                30%   {transform: translate(-9px, 9px);}
                39%   {transform: translate(-9px, 9px);}
                40%   {transform: translate(-9px, -9px);}
                59%   {transform: translate(-9px, -9px);}
                60%   {transform: translate(-9px, 0);}
                69%   {transform: translate(-9px, 0);}
                70%   {transform: translate(9px, 0);}
                71%   {transform: translate(9px, 0);}
                72%   {transform: translate(-9px, 0);}
                79%   {transform: translate(-9px, 0);}
                80%   {transform: translate(0, 0);}
                89%   {transform: translate(0, 0);}
                90%   {transform: translate(0, -9px);}
                99%   {transform: translate(0, -9px);}
            } 
        ]]>
    </style>
    <g stroke="none" stroke-width="1" fill="none" fill-rule="evenodd">
        <g transform="translate(-700.000000, -115.000000)" fill="#000000" fill-rule="nonzero">
            <g transform="translate(700.000000, 115.000000)">
                <path d="M165,56 L165,40 L189,40 L189,32 L197,32 L197,8 L189,8 L189,0 L149,0 L149,56 L165,56 Z M181,32 L165,32 L165,8 L181,8 L181,32 Z M223,56 L223,40 L239,40 L239,56 L255,56 L255,8 L247,8 L247,0 L215,0 L215,8 L207,8 L207,56 L223,56 Z M239,32 L223,32 L223,8 L239,8 L239,32 Z M313,56 L313,24 L289,24 L289,32 L297,32 L297,48 L281,48 L281,8 L305,8 L305,0 L273,0 L273,8 L265,8 L265,48 L273,48 L273,56 L313,56 Z M313,16 L313,8 L305,8 L305,16 L313,16 Z M371,56 L371,48 L339,48 L339,32 L355,32 L355,24 L339,24 L339,8 L371,8 L371,0 L323,0 L323,56 L371,56 Z M407,56 L407,32 L415,32 L415,40 L423,40 L423,48 L431,48 L431,56 L439,56 L439,0 L431,0 L431,32 L423,32 L423,24 L415,24 L415,16 L407,16 L407,0 L391,0 L391,56 L407,56 Z M489,56 L489,48 L497,48 L497,8 L489,8 L489,0 L457,0 L457,8 L449,8 L449,48 L457,48 L457,56 L489,56 Z M481,48 L465,48 L465,8 L481,8 L481,48 Z M539,56 L539,8 L555,8 L555,0 L507,0 L507,8 L523,8 L523,56 L539,56 Z M591,56 L591,32 L607,32 L607,24 L591,24 L591,8 L623,8 L623,0 L575,0 L575,56 L591,56 Z M673,56 L673,48 L681,48 L681,8 L673,8 L673,0 L641,0 L641,8 L633,8 L633,48 L641,48 L641,56 L673,56 Z M707,0 L707,48 L723,48 L723,0 L739,0 L739,48 L731,48 L731,56 L699,56 L699,48 L691,48 L691,0 L707,0 Z M765,0 L765,16 L773,16 L773,24 L781,24 L781,32 L789,32 L789,0 L797,0 L797,56 L789,56 L789,48 L781,48 L781,40 L773,40 L773,32 L765,32 L765,56 L749,56 L749,0 L765,0 Z M847,0 L847,8 L855,8 L855,48 L847,48 L847,56 L807,56 L807,0 L847,0 Z M665,8 L665,48 L649,48 L649,8 L665,8 Z M833,8 L817,8 L817,48 L833,48 L833,8 Z" id="PAGENOTFOUND"></path>
                <g id="right" transform="translate(70.000000, 0.000000)">
                    <polygon class="iris__right" points="18 37 22.5 37 27 37 27 18 22.5 18 18 18 13.5 18 9 18 9 37 13.5 37"></polygon>
                    <polygon points="9 27.3 9 18.05 9 8.8 0 8.8 0 18.05 0 27.3 0 36.55 0 45.8 9 45.8 9 36.55"></polygon>
                    <polygon points="27 9 36 9 45 9 45 0 36 0 27 0 18 0 9 0 9 9 18 9"></polygon>
                    <polygon points="27 45.8 18 45.8 9 45.8 9 54.8 18 54.8 27 54.8 36 54.8 45 54.8 45 45.8 36 45.8"></polygon>
                    <polygon points="45 8.8 45 18.05 45 27.3 45 36.55 45 45.8 54 45.8 54 36.55 54 27.3 54 18.05 54 8.8"></polygon>
                </g>
                <g id="left">
                    <polygon class="iris__left" points="18 37 22.5 37 27 37 27 18 22.5 18 18 18 13.5 18 9 18 9 37 13.5 37"></polygon>
                    <polygon points="9 27.3 9 18.05 9 8.8 0 8.8 0 18.05 0 27.3 0 36.55 0 45.8 9 45.8 9 36.55"></polygon>
                    <polygon points="27 9 36 9 45 9 45 0 36 0 27 0 18 0 9 0 9 9 18 9"></polygon>
                    <polygon points="27 45.8 18 45.8 9 45.8 9 54.8 18 54.8 27 54.8 36 54.8 45 54.8 45 45.8 36 45.8"></polygon>
                    <polygon points="45 8.8 45 18.05 45 27.3 45 36.55 45 45.8 54 45.8 54 36.55 54 27.3 54 18.05 54 8.8"></polygon>
                </g>
            </g>
        </g>
    </g>
</svg>