<?xml version="1.0" encoding="UTF-8"?>
<svg width="675px" height="92px" viewBox="0 0 675 92" version="1.1" xmlns="http://www.w3.org/2000/svg" xmlns:xlink="http://www.w3.org/1999/xlink">
    <title>corematch_logo_polkadot</title>
    <g id="Page-1" stroke="none" stroke-width="1" fill="none" fill-rule="evenodd">
        <g id="Artboard" transform="translate(-195.000000, -389.000000)">
            <g id="corematch_logo_polkadot" transform="translate(195.000000, 389.000000)">
                <path d="M193,55 L193,47.1428571 L169.6,47.1428571 L169.6,7.85714286 L193,7.85714286 L193,0 L161.8,0 L161.8,7.85714286 L154,7.85714286 L154,47.1428571 L161.8,47.1428571 L161.8,55 L193,55 Z M201,16 L201,8 L193,8 L193,16 L201,16 Z M201,47 L201,39 L193,39 L193,47 L201,47 Z M250.166667,55 L250.166667,47.1428571 L258,47.1428571 L258,7.85714286 L250.166667,7.85714286 L250.166667,0 L218.833333,0 L218.833333,7.85714286 L211,7.85714286 L211,47.1428571 L218.833333,47.1428571 L218.833333,55 L250.166667,55 Z M243,47 L227,47 L227,8 L243,8 L243,47 Z M283.666667,55 L283.666667,39.2857143 L291.5,39.2857143 L291.5,47.1428571 L299.333333,47.1428571 L299.333333,55 L315,55 L315,47.1428571 L307.166667,47.1428571 L307.166667,31.4285714 L315,31.4285714 L315,7.85714286 L307.166667,7.85714286 L307.166667,0 L268,0 L268,55 L283.666667,55 Z M296,32 L280,32 L280,8 L296,8 L296,32 Z M372,55 L372,47.1428571 L340.666667,47.1428571 L340.666667,31.4285714 L356.333333,31.4285714 L356.333333,23.5714286 L340.666667,23.5714286 L340.666667,7.85714286 L372,7.85714286 L372,0 L325,0 L325,55 L372,55 Z M389.875,55 L389.875,23.5714286 L397.75,23.5714286 L397.75,31.4285714 L405.625,31.4285714 L405.625,39.2857143 L413.5,39.2857143 L413.5,31.4285714 L421.375,31.4285714 L421.375,23.5714286 L429.25,23.5714286 L429.25,55 L445,55 L445,0 L429.25,0 L429.25,7.85714286 L421.375,7.85714286 L421.375,15.7142857 L413.5,15.7142857 L413.5,23.5714286 L405.625,23.5714286 L405.625,15.7142857 L397.75,15.7142857 L397.75,7.85714286 L389.875,7.85714286 L389.875,0 L382,0 L382,55 L389.875,55 Z M470.666667,55 L470.666667,39.2857143 L486.333333,39.2857143 L486.333333,55 L502,55 L502,7.85714286 L494.166667,7.85714286 L494.166667,0 L462.833333,0 L462.833333,7.85714286 L455,7.85714286 L455,55 L470.666667,55 Z M484,32 L468,32 L468,8 L484,8 L484,32 Z M543.333333,55 L543.333333,7.85714286 L559,7.85714286 L559,0 L512,0 L512,7.85714286 L527.666667,7.85714286 L527.666667,55 L543.333333,55 Z M608,55 L608,47.1428571 L584.6,47.1428571 L584.6,7.85714286 L608,7.85714286 L608,0 L576.8,0 L576.8,7.85714286 L569,7.85714286 L569,47.1428571 L576.8,47.1428571 L576.8,55 L608,55 Z M618,16 L618,8 L610,8 L610,16 L618,16 Z M616,47 L616,39 L608,39 L608,47 L616,47 Z M643.666667,55 L643.666667,31.4285714 L659.333333,31.4285714 L659.333333,55 L675,55 L675,0 L659.333333,0 L659.333333,23.5714286 L643.666667,23.5714286 L643.666667,0 L628,0 L628,55 L643.666667,55 Z" id="COREMATCH" fill="#000000" fill-rule="nonzero"></path>
                <g id="icon" fill="#000000" fill-rule="nonzero">
                    <g id="right" transform="translate(70.000000, 0.000000)">
                        <polygon id="Path" points="9 18.05 9 8.8 0 8.8 0 18.05 0 27.3 0 36.55 0 45.8 9 45.8 9 36.55"></polygon>
                        <polygon id="Path" points="27 9 36 9 45 9 45 0 36 0 27 0 18 0 9 0 9 9 18 9"></polygon>
                        <polygon id="Path" points="27 45.8 18 45.8 9 45.8 9 54.8 18 54.8 27 54.8 36 54.8 45 54.8 45 45.8 36 45.8"></polygon>
                        <polygon id="Path" points="45 8.8 45 18.05 27 18.05 27 36.55 45 36.55 45 45.8 54 45.8 54 36.55 54 27.3 54 18.05 54 8.8"></polygon>
                    </g>
                    <g id="right">
                        <polygon id="Path" points="9 18.05 9 8.8 0 8.8 0 18.05 0 27.3 0 36.55 0 45.8 9 45.8 9 36.55"></polygon>
                        <polygon id="Path" points="27 9 36 9 45 9 45 0 36 0 27 0 18 0 9 0 9 9 18 9"></polygon>
                        <polygon id="Path" points="27 45.8 18 45.8 9 45.8 9 54.8 18 54.8 27 54.8 36 54.8 45 54.8 45 45.8 36 45.8"></polygon>
                        <polygon id="Path" points="45 8.8 45 18.05 27 18.05 27 36.55 45 36.55 45 45.8 54 45.8 54 36.55 54 27.3 54 18.05 54 8.8"></polygon>
                    </g>
                </g>
                <polygon id="line" fill="#000000" points="8.65923117 78.0118837 8.65923117 74 273 74 273 78.0118837 264.366138 78.0118837 264.366138 83 0 83 0 78.0118837"></polygon>
                <path d="M305,83 L305,71 L303,71 L303,83 L305,83 Z M297,83 L297,71 L295,71 L295,83 L297,83 Z M303,85 L303,83 L297,83 L297,85 L303,85 Z M313,85 L313,73 L319,73 L319,71 L311,71 L311,85 L313,85 Z M321,85 L321,73 L319,73 L319,85 L321,85 Z M335,73 L335,71 L329,71 L329,73 L335,73 Z M329,77 L329,73 L327,73 L327,77 L329,77 Z M337,75 L337,73 L335,73 L335,75 L337,75 Z M335,79 L335,77 L329,77 L329,79 L335,79 Z M337,83 L337,79 L335,79 L335,83 L337,83 Z M329,83 L329,81 L327,81 L327,83 L329,83 Z M335,85 L335,83 L329,83 L329,85 L335,85 Z M349,83 L349,73 L353,73 L353,71 L349,71 L349,69 L347,69 L347,71 L345,71 L345,73 L347,73 L347,83 L349,83 Z M353,85 L353,83 L349,83 L349,85 L353,85 Z M367,73 L367,71 L361,71 L361,73 L367,73 Z M369,83 L369,73 L367,73 L367,83 L369,83 Z M361,83 L361,73 L359,73 L359,83 L361,83 Z M367,85 L367,83 L361,83 L361,85 L367,85 Z M377,89 L377,85 L383,85 L383,83 L377,83 L377,73 L383,73 L383,71 L375,71 L375,89 L377,89 Z M385,83 L385,73 L383,73 L383,83 L385,83 Z M393,89 L393,85 L399,85 L399,83 L393,83 L393,73 L399,73 L399,71 L391,71 L391,89 L393,89 Z M401,83 L401,73 L399,73 L399,83 L401,83 Z M415,73 L415,71 L409,71 L409,73 L415,73 Z M409,75 L409,73 L407,73 L407,75 L409,75 Z M409,79 L415,79 L415,83 L409,83 L409,79 Z M409,79 L407,79 L407,83 L409,83 L409,85 L417,85 L417,73 L415,73 L415,77 L409,77 L409,79 Z M431,85 L431,83 L425,83 L425,73 L431,73 L431,71 L425,71 L425,67 L423,67 L423,85 L431,85 Z M433,83 L433,73 L431,73 L431,83 L433,83 Z M449,85 L449,83 L445,83 L445,67 L439,67 L439,69 L443,69 L443,83 L439,83 L439,85 L449,85 Z M463,73 L463,71 L457,71 L457,73 L463,73 Z M457,83 L457,79 L465,79 L465,73 L463,73 L463,77 L457,77 L457,73 L455,73 L455,83 L457,83 Z M465,83 L465,81 L463,81 L463,83 L465,83 Z M463,85 L463,83 L457,83 L457,85 L463,85 Z M495,85 L495,83 L489,83 L489,73 L495,73 L495,71 L489,71 L489,67 L487,67 L487,85 L495,85 Z M497,83 L497,73 L495,73 L495,83 L497,83 Z M505,81 L505,83 L511,83 L511,87 L513,87 L513,71 L511,71 L511,81 L505,81 Z M505,87 L505,85 L503,85 L503,87 L505,87 Z M511,89 L511,87 L505,87 L505,89 L511,89 Z M505,81 L505,71 L503,71 L503,81 L505,81 Z" id="motto" fill="#000000" fill-rule="nonzero"></path>
                <g id="Polkadot_Logo_Horizontal_Pink-Black" transform="translate(533.000000, 62.000000)" fill-rule="nonzero">
                    <path d="M45.0256858,5 C43.3892768,5 41.8122195,5.20222377 41.1699501,5.37317582 C40.2351621,5.63168867 40.001995,6.03405142 39.8260599,6.86796386 L36.1165835,23.7025712 C36.0572319,24.0465601 36,24.3342599 36,24.6219597 C36,25.4558721 36.5553616,26 37.4604738,26 C38.4546135,26 38.8637157,25.3683113 39.067207,24.390549 L40.1185786,19.5934677 C40.8477556,19.6789437 41.8122195,19.7665045 43.1857855,19.7665045 C49.2332918,19.7665045 53,16.5496873 53,11.6942321 C53,7.44127867 49.9900249,5 45.0256858,5 Z M43.0395262,17.0083391 C42.1047382,17.0083391 41.3734414,16.9791522 40.703616,16.8936762 L42.6600998,7.95830438 C43.2726933,7.87282835 44.1799252,7.75608061 45.1147132,7.75608061 C48.3281796,7.75608061 49.9645885,9.25086866 49.9645885,11.7213343 C49.9624688,14.8818624 47.6244389,17.0083391 43.0395262,17.0083391 L43.0395262,17.0083391 Z" id="Shape" fill="#000000"></path>
                    <path d="M139.870452,19.7146703 C139.402639,19.7146703 139.09876,19.9932705 138.520992,20.6332436 C137.501399,21.6911171 136.867653,22.2745626 136.069972,22.2745626 C135.354258,22.2745626 134.968413,21.6911171 134.968413,20.7442799 C134.968413,20.2153432 135.078369,19.5753701 135.216313,18.8808883 L136.235906,14.0397039 L139.294682,14.0397039 C140.258297,14.0397039 140.838065,13.4825034 140.838065,12.4811575 C140.838065,11.9239569 140.480208,11.5080754 139.654538,11.5080754 L136.785686,11.5080754 L137.281487,9.25504711 C137.337465,8.92193809 137.391443,8.61507402 137.391443,8.33647376 C137.391443,7.55720054 136.867653,7 136.013994,7 C135.104358,7 134.692523,7.61170929 134.498601,8.55854643 L133.864854,11.5080754 L132.569372,11.5080754 C131.577769,11.5080754 131,12.0652759 131,13.0666218 C131,13.6238223 131.385846,14.0397039 132.211515,14.0397039 L133.341064,14.0397039 L132.321471,18.8243607 C132.211515,19.3532974 132.073571,20.2153432 132.073571,21.1056528 C132.073571,23.358681 133.231108,25 135.710116,25 C137.143543,25 138.409036,24.2772544 139.37465,23.4131898 C140.312275,22.5794078 141,21.5497981 141,20.8815612 C141,20.243607 140.504198,19.7146703 139.870452,19.7146703 Z" id="Path" fill="#000000"></path>
                    <path d="M73,6.40708502 C73,5.55688259 72.4059041,5 71.4867774,5 C70.5073801,5 70.0639606,5.64402834 69.8551661,6.64089069 L66.148524,23.6576923 C66.0602706,24.0084008 66,24.3017206 66,24.5950405 C66,25.4452429 66.5940959,26 67.4830873,26 C68.4926199,26 68.9360394,25.3559717 69.1448339,24.3591093 L72.851476,7.3444332 C72.9117466,6.99159919 73,6.70040486 73,6.40708502 Z" id="Path" fill="#000000"></path>
                    <path d="M125.807144,11.5041991 C121.089284,11.5041991 117.875576,16.1597693 117.875576,20.5816048 C117.875576,20.6644743 117.877715,20.7473439 117.879855,20.8280886 C117.139547,21.9436406 116.193835,23.0995649 115.54553,23.0995649 C115.074814,23.0995649 114.897226,22.6597187 114.897226,21.9861378 C114.897226,21.1659415 115.132584,19.7890317 115.397897,18.5884853 L117.845621,7.34372154 C117.90553,6.9931195 117.9633,6.6998887 117.9633,6.4066579 C117.9633,5.55671355 117.40272,5 116.489102,5 C115.485621,5 115.074814,5.64383284 114.867271,6.64039259 L113.540707,12.7302439 C112.832493,11.9992917 111.799057,11.4999494 110.237135,11.4999494 C107.104733,11.4999494 103.953073,13.8946676 102.724932,17.5685521 C101.372693,21.0405747 100.163808,23.0953152 99.2095376,23.0953152 C98.8565005,23.0953152 98.6489574,22.8020844 98.6489574,22.3048669 C98.6489574,20.8408378 99.4748504,17.2689467 99.8278876,15.5414348 C99.9455666,14.8976019 100.005476,14.6341192 100.005476,14.2537691 C100.005476,12.9661034 97.853019,11.4425782 95.0522575,11.4425782 C91.812874,11.4425782 88.879456,13.4803197 87.4095376,16.5061216 C85.2249864,20.3393706 83.2201632,23.0953152 82.2273799,23.0953152 C81.7844787,23.0953152 81.636845,22.5386016 81.5191659,22.0116361 L80.7852765,17.9765253 L85.2955938,14.3175149 C85.7085403,13.9669129 86.2391659,13.4675706 86.2391659,12.8237377 C86.2391659,12.0332895 85.7085403,11.506324 84.912602,11.506324 C84.3220671,11.506324 83.8213962,11.856926 83.3207253,12.2670242 L76.540272,17.8299099 L78.810408,7.34797126 C78.8703173,6.99736922 78.9580417,6.70413842 78.9580417,6.41090762 C78.9580417,5.56096327 78.3675068,5.00424972 77.4538894,5.00424972 C76.4803626,5.00424972 76.0396011,5.64808257 75.832058,6.64464232 L72.1476337,23.6562785 C72.0599093,24.0068805 72,24.3001113 72,24.5933421 C72,25.4432865 72.5905349,25.9978751 73.4741976,25.9978751 C74.4776791,25.9978751 74.9184406,25.3540423 75.1259837,24.3574825 L75.5988395,22.1625013 L78.3696464,19.9377719 L79.0479057,23.3332996 C79.3132185,24.6804614 80.0214325,25.9978751 81.8486673,25.9978751 C83.6673436,25.9978751 85.0987489,24.3489831 86.5322937,22.120004 C86.9666364,24.4552261 88.6398187,25.9978751 90.9613055,25.9978751 C93.2913509,25.9978751 94.8832276,24.6209653 95.914524,22.7765861 L95.914524,22.8360822 C95.914524,24.7399575 96.8880508,25.9978751 98.5976065,25.9978751 C100.144551,25.9978751 101.428323,25.0714358 102.575159,23.1038146 C103.225603,24.8185774 104.680544,25.9978751 106.704624,25.9978751 C109.092439,25.9978751 110.801995,24.5635941 111.8932,22.5725994 L111.8932,22.7489629 C111.8932,24.8568249 112.954451,26 114.693962,26 C116.230209,26 117.535376,25.113933 118.650118,23.6732773 C119.497407,25.113933 121.016537,26 123.068432,26 C127.786292,26 131,21.3444298 131,16.8928463 C130.99786,13.7586765 129.080762,11.5041991 125.807144,11.5041991 Z M96.4130553,17.4495599 C95.5572076,21.1085703 93.7299728,23.1888091 91.6652403,23.1888091 C90.278767,23.1888091 89.5127833,22.1348781 89.5127833,20.5539816 C89.5127833,17.4495599 91.7829193,14.1114034 94.819039,14.1114034 C95.7326564,14.1114034 96.4408704,14.3748862 97.0592203,14.7552363 L96.4130553,17.4495599 Z M112.834633,15.8984114 C111.891061,20.2033795 109.738604,23.1888091 107.380743,23.1888091 C106.084134,23.1888091 105.316011,22.1922493 105.316011,20.5539816 C105.316011,17.4219367 107.498422,14.1708995 110.416863,14.1708995 C111.538024,14.1708995 112.391732,14.5512496 113.012221,15.0484671 L112.834633,15.8984114 Z M123.419329,23.1888091 C121.709773,23.1888091 121.001559,21.9585146 121.001559,20.4073662 C121.001559,17.5664272 122.976428,14.3175149 125.454107,14.3175149 C127.163663,14.3175149 127.871877,15.5478094 127.871877,17.0989578 C127.871877,19.96752 125.897008,23.1888091 123.419329,23.1888091 Z" id="Shape" fill="#000000"></path>
                    <path d="M59.8589367,11 C55.1842792,11 52,15.4969946 52,19.7682158 C52,22.8223134 53.8995434,25 57.1410633,25 C61.8157208,25 65,20.5030054 65,16.2030494 C65,13.1776866 63.1004566,11 59.8589367,11 Z M57.4929876,22.2866149 C55.7990868,22.2866149 55.0973581,21.0982261 55.0973581,19.599912 C55.0973581,16.8557396 57.0541422,13.7174901 59.5091324,13.7174901 C61.2030333,13.7174901 61.9047619,14.9058789 61.9047619,16.4041929 C61.9026419,19.1750476 59.9458578,22.2866149 57.4929876,22.2866149 Z" id="Shape" fill="#000000"></path>
                    <ellipse id="Oval" fill="#E6007A" cx="16" cy="3" rx="5" ry="3"></ellipse>
                    <ellipse id="Oval" fill="#E6007A" cx="16" cy="27" rx="5" ry="3"></ellipse>
                    <ellipse id="Oval" fill="#E6007A" transform="translate(5.389843, 9.275736) rotate(-59.999272) translate(-5.389843, -9.275736) " cx="5.38984343" cy="9.27573638" rx="5.35627178" ry="3.12088309"></ellipse>
                    <ellipse id="Oval" fill="#E6007A" transform="translate(25.752659, 21.005095) rotate(-59.999272) translate(-25.752659, -21.005095) " cx="25.7526595" cy="21.0050946" rx="5.35627177" ry="3.1187744"></ellipse>
                    <ellipse id="Oval" fill="#E6007A" transform="translate(5.390590, 21.004381) rotate(-30.000728) translate(-5.390590, -21.004381) " cx="5.39059036" cy="21.004381" rx="3.12088309" ry="5.35627178"></ellipse>
                    <ellipse id="Oval" fill="#E6007A" transform="translate(25.753923, 9.276418) rotate(-30.000728) translate(-25.753923, -9.276418) " cx="25.7539234" cy="9.27641843" rx="3.1187744" ry="5.35627177"></ellipse>
                </g>
            </g>
        </g>
    </g>
</svg>