<?xml version="1.0" encoding="UTF-8"?>
<svg width="722px" height="150px" viewBox="0 0 722 150" version="1.1" xmlns="http://www.w3.org/2000/svg" xmlns:xlink="http://www.w3.org/1999/xlink">
    <title>corematch_logo_kusama</title>
    <g id="Page-1" stroke="none" stroke-width="1" fill="none" fill-rule="evenodd">
        <g id="Artboard" transform="translate(-319.000000, -673.000000)" fill="#22262A">
            <g id="Group" transform="translate(318.000000, 557.000000)">
                <g id="corematch_logo_kusama" transform="translate(1.000000, 116.000000)">
                    <path d="M54,0 L54,11 L21.6,11 L21.6,66 L54,66 L54,77 L10.8,77 L10.8,66 L0,66 L0,11 L10.8,11 L10.8,0 L54,0 Z M65,55 L65,66 L54,66 L54,55 L65,55 Z M65,11 L65,22 L54,22 L54,11 L65,11 Z M133.166667,0 L133.166667,11 L144,11 L144,66 L133.166667,66 L133.166667,77 L89.8333333,77 L89.8333333,66 L79,66 L79,11 L89.8333333,11 L89.8333333,0 L133.166667,0 Z M123,11 L101,11 L101,66 L123,66 L123,11 Z M213.166667,0 L213.166667,11 L224,11 L224,44 L213.166667,44 L213.166667,66 L224,66 L224,77 L202.333333,77 L202.333333,66 L191.5,66 L191.5,55 L180.666667,55 L180.666667,77 L159,77 L159,0 L213.166667,0 Z M198,11 L176,11 L176,45 L198,45 L198,11 Z M303,77 L303,66 L259.666667,66 L259.666667,44 L281.333333,44 L281.333333,33 L259.666667,33 L259.666667,11 L303,11 L303,0 L238,0 L238,77 L303,77 Z M328,77 L328,33 L339,33 L339,44 L350,44 L350,55 L361,55 L361,44 L372,44 L372,33 L383,33 L383,77 L405,77 L405,0 L383,0 L383,11 L372,11 L372,22 L361,22 L361,33 L350,33 L350,22 L339,22 L339,11 L328,11 L328,0 L317,0 L317,77 L328,77 Z M473.166667,0 L473.166667,11 L484,11 L484,77 L462.333333,77 L462.333333,55 L440.666667,55 L440.666667,77 L419,77 L419,11 L429.833333,11 L429.833333,0 L473.166667,0 Z M463,11 L441,11 L441,45 L463,45 L463,11 Z M564,0 L564,11 L542.333333,11 L542.333333,77 L520.666667,77 L520.666667,11 L499,11 L499,0 L564,0 Z M632,0 L632,11 L599.6,11 L599.6,66 L632,66 L632,77 L588.8,77 L588.8,66 L578,66 L578,11 L588.8,11 L588.8,0 L632,0 Z M643,55 L643,66 L632,66 L632,55 L643,55 Z M643,11 L643,22 L632,22 L632,11 L643,11 Z M678.666667,77 L678.666667,44 L700.333333,44 L700.333333,77 L722,77 L722,0 L700.333333,0 L700.333333,33 L678.666667,33 L678.666667,0 L657,0 L657,77 L678.666667,77 Z" id="COREMATCH" fill-rule="nonzero"></path>
                    <g id="motto" transform="translate(53.000000, 102.000000)">
                        <path d="M11.25,33.5 L11.25,36.3125 L2.8125,36.3125 L2.8125,33.5 L11.25,33.5 Z M14.0625,11 L14.0625,33.5 L11.25,33.5 L11.25,11 L14.0625,11 Z M2.8125,11 L2.8125,33.5 L0,33.5 L0,11 L2.8125,11 Z M39.0625,11 L39.0625,36.3125 L36.25,36.3125 L36.25,27.875 L33.4375,27.875 L33.4375,25.0625 L36.25,25.0625 L36.25,11 L39.0625,11 Z M27.8125,11 L27.8125,19.4375 L30.625,19.4375 L30.625,22.25 L27.8125,22.25 L27.8125,36.3125 L25,36.3125 L25,11 L27.8125,11 Z M33.4375,22.25 L33.4375,25.0625 L30.625,25.0625 L30.625,22.25 L33.4375,22.25 Z M62.25,33.5 L62.25,36.3125 L53.8125,36.3125 L53.8125,33.5 L62.25,33.5 Z M65.0625,25.0625 L65.0625,33.5 L62.25,33.5 L62.25,25.0625 L65.0625,25.0625 Z M53.8125,30.6875 L53.8125,33.5 L51,33.5 L51,30.6875 L53.8125,30.6875 Z M62.25,22.25 L62.25,25.0625 L53.8125,25.0625 L53.8125,22.25 L62.25,22.25 Z M53.8125,13.8125 L53.8125,22.25 L51,22.25 L51,13.8125 L53.8125,13.8125 Z M65.0625,13.8125 L65.0625,16.625 L62.25,16.625 L62.25,13.8125 L65.0625,13.8125 Z M62.25,11 L62.25,13.8125 L53.8125,13.8125 L53.8125,11 L62.25,11 Z M84.4375,36.3125 L84.4375,13.8125 L90.0625,13.8125 L90.0625,11 L76,11 L76,13.8125 L81.625,13.8125 L81.625,36.3125 L84.4375,36.3125 Z M112.25,33.5 L112.25,36.3125 L103.8125,36.3125 L103.8125,33.5 L112.25,33.5 Z M115.0625,13.8125 L115.0625,33.5 L112.25,33.5 L112.25,13.8125 L115.0625,13.8125 Z M103.8125,13.8125 L103.8125,33.5 L101,33.5 L101,13.8125 L103.8125,13.8125 Z M112.25,11 L112.25,13.8125 L103.8125,13.8125 L103.8125,11 L112.25,11 Z M138.25,11 L138.25,13.8125 L129.8125,13.8125 L129.8125,22.25 L138.25,22.25 L138.25,25.0625 L129.8125,25.0625 L129.8125,36.3125 L127,36.3125 L127,11 L138.25,11 Z M141.0625,13.8125 L141.0625,22.25 L138.25,22.25 L138.25,13.8125 L141.0625,13.8125 Z M163.25,11 L163.25,13.8125 L154.8125,13.8125 L154.8125,22.25 L163.25,22.25 L163.25,25.0625 L154.8125,25.0625 L154.8125,36.3125 L152,36.3125 L152,11 L163.25,11 Z M166.0625,13.8125 L166.0625,22.25 L163.25,22.25 L163.25,13.8125 L166.0625,13.8125 Z M179.8125,13.8125 L179.8125,25.0625 L188.25,25.0625 L188.25,13.8125 L191.0625,13.8125 L191.0625,36.3125 L188.25,36.3125 L188.25,27.875 L179.8125,27.875 L179.8125,36.3125 L177,36.3125 L177,13.8125 L179.8125,13.8125 Z M188.25,11 L188.25,13.8125 L179.8125,13.8125 L179.8125,11 L188.25,11 Z M213.25,11 L213.25,13.8125 L204.8125,13.8125 L204.8125,22.25 L213.25,22.25 L213.25,25.0625 L204.8125,25.0625 L204.8125,33.5 L213.25,33.5 L213.25,36.3125 L202,36.3125 L202,11 L213.25,11 Z M216.0625,25.0625 L216.0625,33.5 L213.25,33.5 L213.25,25.0625 L216.0625,25.0625 Z M216.0625,13.8125 L216.0625,22.25 L213.25,22.25 L213.25,13.8125 L216.0625,13.8125 Z M242.0625,36.3125 L242.0625,33.5 L230.8125,33.5 L230.8125,11 L228,11 L228,36.3125 L242.0625,36.3125 Z M267.0625,36.3125 L267.0625,33.5 L255.8125,33.5 L255.8125,25.0625 L261.4375,25.0625 L261.4375,22.25 L255.8125,22.25 L255.8125,13.8125 L267.0625,13.8125 L267.0625,11 L253,11 L253,36.3125 L267.0625,36.3125 Z" id="UNSTOPPABLE" fill-rule="nonzero"></path>
                        <path d="M319.25,11 L319.25,13.8125 L310.8125,13.8125 L310.8125,22.25 L319.25,22.25 L319.25,25.0625 L310.8125,25.0625 L310.8125,33.5 L319.25,33.5 L319.25,36.3125 L308,36.3125 L308,11 L319.25,11 Z M322.0625,25.0625 L322.0625,33.5 L319.25,33.5 L319.25,25.0625 L322.0625,25.0625 Z M322.0625,13.8125 L322.0625,22.25 L319.25,22.25 L319.25,13.8125 L322.0625,13.8125 Z M340.4375,22.25 L340.4375,36.3125 L337.625,36.3125 L337.625,22.25 L340.4375,22.25 Z M343.25,19.4375 L343.25,22.25 L340.4375,22.25 L340.4375,19.4375 L343.25,19.4375 Z M337.625,19.4375 L337.625,22.25 L334.8125,22.25 L334.8125,19.4375 L337.625,19.4375 Z M346.0625,11 L346.0625,19.4375 L343.25,19.4375 L343.25,11 L346.0625,11 Z M334.8125,11 L334.8125,19.4375 L332,19.4375 L332,11 L334.8125,11 Z" id="BY" fill-rule="nonzero"></path>
                        <path d="M594.6875,11.6875 L594.6875,37 L591.875,37 L591.875,20.125 L589.0625,20.125 L589.0625,22.9375 L586.25,22.9375 L586.25,20.125 L589.0625,20.125 L589.0625,17.3125 L591.875,17.3125 L591.875,11.6875 L594.6875,11.6875 Z M577.8125,11.6875 L577.8125,17.3125 L580.625,17.3125 L580.625,20.125 L577.8125,20.125 L577.8125,37 L575,37 L575,11.6875 L577.8125,11.6875 Z M480.8125,11 L480.8125,22.25 L483.625,22.25 L483.625,25.0625 L480.8125,25.0625 L480.8125,36.3125 L478,36.3125 L478,11 L480.8125,11 Z M492.0625,30.6875 L492.0625,36.3125 L489.25,36.3125 L489.25,30.6875 L492.0625,30.6875 Z M513.25,33.5 L513.25,36.3125 L504.8125,36.3125 L504.8125,33.5 L513.25,33.5 Z M537.25,33.5 L537.25,36.3125 L528.8125,36.3125 L528.8125,33.5 L537.25,33.5 Z M553.8125,13.8125 L553.8125,25.0625 L562.25,25.0625 L562.25,13.8125 L565.0625,13.8125 L565.0625,36.3125 L562.25,36.3125 L562.25,27.875 L553.8125,27.875 L553.8125,36.3125 L551,36.3125 L551,13.8125 L553.8125,13.8125 Z M607.8125,13.8125 L607.8125,25.0625 L616.25,25.0625 L616.25,13.8125 L619.0625,13.8125 L619.0625,36.3125 L616.25,36.3125 L616.25,27.875 L607.8125,27.875 L607.8125,36.3125 L605,36.3125 L605,13.8125 L607.8125,13.8125 Z M516.0625,11 L516.0625,33.5 L513.25,33.5 L513.25,11 L516.0625,11 Z M504.8125,11 L504.8125,33.5 L502,33.5 L502,11 L504.8125,11 Z M540.0625,25.0625 L540.0625,33.5 L537.25,33.5 L537.25,25.0625 L540.0625,25.0625 Z M528.8125,30.6875 L528.8125,33.5 L526,33.5 L526,30.6875 L528.8125,30.6875 Z M489.25,27.875 L489.25,30.6875 L486.4375,30.6875 L486.4375,27.875 L489.25,27.875 Z M486.4375,25.0625 L486.4375,27.875 L483.625,27.875 L483.625,25.0625 L486.4375,25.0625 Z M586.25,22.9375 L586.25,25.75 L583.4375,25.75 L583.4375,22.9375 L586.25,22.9375 Z M537.25,22.25 L537.25,25.0625 L528.8125,25.0625 L528.8125,22.25 L537.25,22.25 Z M583.4375,20.125 L583.4375,22.9375 L580.625,22.9375 L580.625,20.125 L583.4375,20.125 Z M486.4375,19.4375 L486.4375,22.25 L483.625,22.25 L483.625,19.4375 L486.4375,19.4375 Z M528.8125,13.8125 L528.8125,22.25 L526,22.25 L526,13.8125 L528.8125,13.8125 Z M489.25,16.625 L489.25,19.4375 L486.4375,19.4375 L486.4375,16.625 L489.25,16.625 Z M492.0625,11 L492.0625,16.625 L489.25,16.625 L489.25,11 L492.0625,11 Z M540.0625,13.8125 L540.0625,16.625 L537.25,16.625 L537.25,13.8125 L540.0625,13.8125 Z M537.25,11 L537.25,13.8125 L528.8125,13.8125 L528.8125,11 L537.25,11 Z M562.25,11 L562.25,13.8125 L553.8125,13.8125 L553.8125,11 L562.25,11 Z M616.25,11 L616.25,13.8125 L607.8125,13.8125 L607.8125,11 L616.25,11 Z" id="KUSAMA" fill-rule="nonzero"></path>
                        <g id="kusama_logo" transform="translate(387.000000, 0.000000)">
                            <path d="M24,0 C37.254834,0 48,10.745166 48,24 C48,37.254834 37.254834,48 24,48 C10.745166,48 0,37.254834 0,24 C0,10.745166 10.745166,0 24,0 Z M32.3051723,16.817532 C31.7374458,17.1802095 30.663085,18.2486046 30.2172345,18.5713937 C29.7713841,18.8935691 28.6359311,19.1961072 26.811801,20.2847533 C24.9873624,21.3733994 17.8111756,25.9495178 17.8111756,25.9495178 L19.6760339,25.9697689 L11.3647026,30.2433492 L12.1959283,30.2433492 L11,31.1503498 C11,31.1503498 12.0536881,31.4326368 12.9456976,30.8680627 L12.9490916,31.1230416 C12.9490916,31.1230416 22.8531426,27.2406742 24.7723051,28.2486231 L23.6084657,28.590129 C23.7099777,28.590129 25.5952001,28.7113284 25.5952001,28.7113284 C25.5952001,28.7113284 25.6559838,29.8803649 26.7914368,30.6262777 C27.9265814,31.3721906 27.9469456,31.7753701 27.9469456,31.7753701 C27.9469456,31.7753701 27.3591634,32.0174618 27.3591634,32.32 C27.3591634,32.32 28.2305002,32.0576571 29.0416704,32.0779081 C29.8525319,32.0978524 30.5618815,32.32 30.5618815,32.32 C30.5618815,32.32 30.5010977,31.9972109 29.7102917,31.7753701 C28.9197944,31.5538361 28.1493524,30.706975 27.7642856,30.2433492 C27.379219,29.7797234 27.1203481,28.9531133 27.4424711,28.1265032 C27.7158438,27.4247745 28.6630832,27.0366298 30.6226653,26.0299083 C32.9346083,24.8427685 33.4606809,23.9535644 33.7849638,23.2680978 C34.1092468,22.582938 34.5958254,21.2120049 34.8645699,20.5670404 C35.2082912,19.7401234 35.6297665,19.2970555 35.9744135,19.0350195 C36.3190605,18.7726766 37.88,18.1881584 37.88,18.1881584 C37.88,18.1881584 36.6880828,17.1765275 36.3005477,16.8736826 C35.8982025,16.5588712 35.412858,16.1268493 34.5368929,16.0136276 C33.7099869,15.9065427 32.8728988,16.4545477 32.3051723,16.817532 Z" id="Shape"></path>
                        </g>
                    </g>
                </g>
            </g>
        </g>
    </g>
</svg>