<?xml version="1.0" encoding="UTF-8"?>
<svg width="60px" height="60px" viewBox="0 0 60 60" version="1.1" xmlns="http://www.w3.org/2000/svg" xmlns:xlink="http://www.w3.org/1999/xlink">
    <title>github_icon</title>
    <g id="Page-1" stroke="none" stroke-width="1" fill="none" fill-rule="evenodd">
        <g id="Desktop" transform="translate(-48.000000, -857.000000)" fill-rule="nonzero">
            <g id="github_icon" transform="translate(48.000000, 857.000000)">
                <rect id="Rectangle" fill="#22262A" x="0" y="0" width="60" height="60" rx="4"></rect>
                <path d="M30,12 C19.5025,12 11,20.4936877 11,30.9697101 C11,39.3527411 16.4435,46.46164 23.99125,48.9672225 C24.94125,49.1458539 25.2895833,48.5593737 25.2895833,48.0550956 C25.2895833,47.604565 25.27375,46.4110541 25.2658333,44.8302449 C19.9806667,45.9747507 18.866,42.2851421 18.866,42.2851421 C18.0015,40.0957214 16.75225,39.510822 16.75225,39.510822 C15.0311667,38.3347 16.88525,38.3584122 16.88525,38.3584122 C18.7931667,38.4912001 19.7954167,40.3122923 19.7954167,40.3122923 C21.4895833,43.2130771 24.243,42.3752483 25.3291667,41.8899398 C25.5001667,40.6632319 25.9894167,39.8269839 26.5325,39.3527411 C22.3129167,38.8784984 17.878,37.2471033 17.878,29.9785427 C17.878,27.9076827 18.61425,26.2162169 19.8334167,24.8883372 C19.6196667,24.409352 18.9784167,22.4807648 19.9996667,19.8676873 C19.9996667,19.8676873 21.5909167,19.3586667 25.2246667,21.8120825 C26.7446667,21.3900065 28.3596667,21.1813397 29.9746667,21.1718548 C31.5896667,21.1813397 33.2046667,21.3900065 34.7246667,21.8120825 C38.3346667,19.3586667 39.9259167,19.8676873 39.9259167,19.8676873 C40.9471667,22.4807648 40.3059167,24.409352 40.1159167,24.8883372 C41.3271667,26.2162169 42.0634167,27.9076827 42.0634167,29.9785427 C42.0634167,37.266073 37.6221667,38.8705943 33.3946667,39.336933 C34.0596667,39.9060243 34.6771667,41.0694999 34.6771667,42.8463294 C34.6771667,45.3851089 34.6534167,47.4243528 34.6534167,48.0408683 C34.6534167,48.5388232 34.9859167,49.1316267 35.9596667,48.9419296 C43.56125,46.4537359 49,39.3400946 49,30.9697101 C49,20.4936877 40.49275,12 30,12" id="Path" fill="#FFFFFF"></path>
            </g>
        </g>
    </g>
</svg>