<?xml version="1.0" encoding="UTF-8"?>
<svg width="220px" height="952px" viewBox="0 0 220 952" version="1.1" xmlns="http://www.w3.org/2000/svg" xmlns:xlink="http://www.w3.org/1999/xlink">
    <title>KUSAMA_6</title>
    <g id="Page-1" stroke="none" stroke-width="1" fill="none" fill-rule="evenodd">
        <g id="Artboard" transform="translate(-98.000000, -61.000000)" fill="#000000" fill-rule="nonzero">
            <g id="KUSAMA_6" transform="translate(208.000000, 537.000000) rotate(-90.000000) translate(-208.000000, -537.000000) translate(-268.000000, 427.000000)">
                <path d="M137.82,65.17 C133.062686,61.2060671 126.925147,59.2950961 120.758444,59.8577514 C114.591742,60.4204067 108.901386,63.4105653 104.94,68.17 L57.85,124.65 C50.6280464,133.30839 50.6280464,145.89161 57.85,154.55 L104.94,211 C113.193896,220.902466 127.912534,222.238896 137.815,213.985 C147.717466,205.731104 149.053896,191.012466 140.8,181.11 L106.17,139.6 L140.8,98.05 C144.766257,93.2952019 146.680615,87.1592345 146.12172,80.9926361 C145.562825,74.8260377 142.576485,69.1342333 137.82,65.17 Z M24,59.7599979 C17.8081141,59.7599979 11.8699778,62.2204008 7.49259119,66.5996629 C3.11520454,70.978925 0.657347093,76.9181147 0.659997855,83.11 L0.659997855,196.11 C0.922963066,208.814818 11.2974611,218.976807 24.005,218.976807 C36.7125389,218.976807 47.0870369,208.814818 47.3500021,196.11 L47.3500021,83.11 C47.3526542,76.9163817 44.8934243,70.9756755 40.5138744,66.5961256 C36.1343245,62.2165757 30.1936183,59.7573458 24,59.7599979 Z M433.6,106.45 C446.304818,106.187037 456.466807,95.8125389 456.466807,83.105 C456.466807,70.3974611 446.304818,60.0229631 433.6,59.76 L334.73,59.76 C321.834151,59.76 311.38,70.2141511 311.38,83.11 L311.38,125.48 C311.384678,135.904926 318.296503,145.064931 328.32,147.93 L410.25,171.34 L410.25,172.75 L334.73,172.75 C326.274459,172.574988 318.385233,176.985846 314.106133,184.280783 C309.827032,191.57572 309.827032,200.61428 314.106133,207.909217 C318.385233,215.204154 326.274459,219.615012 334.73,219.44 L433.6,219.44 C446.490326,219.44 456.94,208.990326 456.94,196.1 L456.94,153.73 C456.942059,143.302817 450.027516,134.13921 440,131.28 L358.07,107.87 L358.07,106.45 L433.6,106.45 Z M278.23,59.76 C272.038114,59.7599994 266.099978,62.2204008 261.722591,66.5996629 C257.345205,70.978925 254.887347,76.9181147 254.89,83.11 L254.89,172.75 L202.71,172.75 L202.71,83.11 C202.885012,74.654459 198.474154,66.7652329 191.179217,62.4861326 C183.88428,58.2070324 174.84572,58.2070324 167.550783,62.4861326 C160.255846,66.7652329 155.844988,74.654459 156.02,83.11 L156.02,196.11 C156.019999,202.301886 158.480401,208.240022 162.859663,212.617409 C167.238925,216.994795 173.178115,219.452653 179.37,219.450002 L278.23,219.450002 C284.421885,219.452653 290.361075,216.994795 294.740337,212.617409 C299.119599,208.240022 301.580002,202.301886 301.580002,196.11 L301.580002,83.11 C301.582654,76.9163817 299.123424,70.9756755 294.743874,66.5961256 C290.364324,62.2165757 284.423618,59.7573458 278.23,59.76 L278.23,59.76 Z M550.4,68.16 C545.966844,62.8368908 539.397364,59.7599998 532.47,59.7599998 L490.09,59.7599998 C483.898114,59.7599998 477.959978,62.2204008 473.582591,66.5996629 C469.205205,70.978925 466.747347,76.9181147 466.749998,83.11 L466.749998,196.11 C466.749998,209.000326 477.199674,219.45 490.09,219.45 L548.54,219.45 C561.244818,219.187037 571.406807,208.812539 571.406807,196.105 C571.406807,183.397461 561.244818,173.022963 548.54,172.76 L513.44,172.76 L513.44,106.46 L521.53,106.46 L579.74,176.31 L579.74,196.11 C580.002963,208.814818 590.377461,218.976807 603.085,218.976807 C615.792539,218.976807 626.167037,208.814818 626.43,196.11 L626.43,167.85 C626.425354,162.384764 624.503803,157.094305 621,152.9 L550.4,68.16 Z M945.93,152.9 L875.31,68.16 C870.876844,62.8368908 864.307364,59.7599979 857.38,59.7599979 L815,59.7599979 C808.806382,59.7573458 802.865676,62.2165757 798.486126,66.5961256 C794.106576,70.9756755 791.647346,76.9163817 791.649998,83.11 L791.649998,196.11 C791.652652,202.300153 794.114224,208.23572 798.493198,212.610944 C802.872173,216.986168 808.809847,219.442653 815,219.440002 L873.44,219.440002 C886.144818,219.177037 896.306807,208.802539 896.306807,196.095 C896.306807,183.387461 886.144818,173.012963 873.44,172.75 L838.34,172.75 L838.34,106.45 L846.43,106.45 L904.64,176.3 L904.64,196.1 C904.902963,208.804818 915.277461,218.966807 927.985,218.966807 C940.692539,218.966807 951.067037,208.804818 951.330006,196.1 L951.330006,167.85 C951.333775,162.388497 949.422991,157.098457 945.93,152.9 L945.93,152.9 Z M768.26,61.9 C759.98024,58.091233 750.240892,59.4502118 743.32,65.38 L709.07,94.74 L674.76,65.37 C667.836461,59.4419506 658.095524,58.0865815 649.816633,61.8993414 C641.537743,65.7121013 636.235767,73.9953336 636.239997,83.11 L636.239997,196.11 C636.502963,208.814818 646.877461,218.976807 659.585,218.976807 C672.292539,218.976807 682.667037,208.814818 682.93,196.11 L682.93,133.82 L693.93,143.21 C702.67233,150.698314 715.56767,150.698314 724.31,143.21 L735.2,133.87 L735.2,196.1 C735.2,208.995849 745.654151,219.45 758.55,219.45 C771.445849,219.45 781.9,208.995849 781.9,196.1 L781.9,83.1 C781.888703,73.9744812 776.560121,65.6925209 768.26,61.9 L768.26,61.9 Z M604.64,49.12 L604.64,50 C604.64,50 636.75,37.3 643,40.58 L639.23,41.69 C639.56,41.69 645.67,42.09 645.67,42.09 C645.95986,44.6447955 647.380187,46.9349353 649.54,48.33 C653.22,50.76 653.29,52.08 653.29,52.08 C653.29,52.08 651.38,52.86 651.38,53.85 C653.15604,53.3416162 654.9927,53.0758724 656.84,53.06 C658.506299,53.1194722 660.158845,53.38482 661.76,53.85 C661.76,53.85 661.57,52.85 659,52.08 C656.43,51.31 653.95,48.59 652.7,47.08 C651.175021,45.1165041 650.795185,42.49564 651.7,40.18 C652.59,37.9 655.7,36.63 662.01,33.35 C669.5,29.48 671.21,26.58 672.26,24.35 C673.31,22.12 674.89,17.65 675.76,15.55 C676.483342,13.5871596 677.727934,11.8585596 679.36,10.55 C680.47,9.7 685.53,7.79 685.53,7.79 C685.53,7.79 681.67,4.5 680.41,3.51 C678.835158,2.01848914 676.843504,1.04184645 674.7,0.71 C672.02,0.36 669.3,2.14 667.46,3.33 C665.62,4.52 662.06,8 660.62,9 C659.18,10 655.49,11 649.62,14.59 C643.75,18.18 620.45,33.05 620.45,33.05 L626.45,33.11 L599.52,47.08 L602.21,47.08 L598.33,50.08 C600.47896,50.5719728 602.734581,50.2288039 604.64,49.12 L604.64,49.12 Z" id="Shape"></path>
            </g>
        </g>
    </g>
</svg>