<?xml version="1.0" encoding="UTF-8"?>
<svg width="201px" height="951px" viewBox="0 0 201 951" version="1.1" xmlns="http://www.w3.org/2000/svg" xmlns:xlink="http://www.w3.org/1999/xlink">
    <title>Polkadot_Logo_Horizontal_Pink-Black</title>
    <g id="Page-1" stroke="none" stroke-width="1" fill="none" fill-rule="evenodd">
        <g id="Artboard" transform="translate(-448.000000, -61.000000)" fill-rule="nonzero">
            <g id="Polkadot_Logo_Horizontal_Pink-Black" transform="translate(548.500000, 536.500000) rotate(-90.000000) translate(-548.500000, -536.500000) translate(73.000000, 436.000000)">
                <path d="M302.525187,30 C291.551621,30 280.97606,31.3866773 276.669077,32.5589199 C270.400499,34.3315795 268.836908,37.0906383 267.657107,42.8088951 L242.781796,158.246203 C242.383791,160.604984 242,162.577782 242,164.550581 C242,170.268837 245.72419,174 251.793766,174 C258.460349,174 261.203741,169.668421 262.568329,162.963765 L269.618703,130.069493 C274.508479,130.655614 280.97606,131.256031 290.187032,131.256031 C330.740898,131.256031 356,109.197856 356,75.9033059 C356,46.7401966 335.815461,30 302.525187,30 Z M289.206234,112.342897 C282.937656,112.342897 278.033666,112.142758 273.541895,111.556637 L286.661845,50.2855157 C290.769825,49.6993944 296.853616,48.8988385 303.122195,48.8988385 C324.671322,48.8988385 335.644888,59.1488137 335.644888,76.0891492 C335.630673,97.7613422 319.95212,112.342897 289.206234,112.342897 L289.206234,112.342897 Z" id="Shape" fill="#000000"></path>
                <path d="M942.367253,136.209062 C938.999,136.209062 936.811076,138.174742 932.65114,142.690108 C925.310076,150.153993 920.747101,154.270525 915.003798,154.270525 C909.85066,154.270525 907.072571,150.153993 907.072571,143.473531 C907.072571,139.741588 907.864254,135.226223 908.857457,130.326267 L916.198521,96.169022 L938.221711,96.169022 C945.159736,96.169022 949.334066,92.2376626 949.334066,85.172611 C949.334066,81.2412517 946.757497,78.3069762 940.812675,78.3069762 L920.156937,78.3069762 L923.726709,62.4106101 C924.129748,60.060341 924.518393,57.8952445 924.518393,55.9295648 C924.518393,50.4313594 920.747101,46.5 914.60076,46.5 C908.051379,46.5 905.086166,50.8159489 903.689924,57.4964109 L899.126949,78.3069762 L889.79948,78.3069762 C882.659936,78.3069762 878.5,82.2383356 878.5,89.3033872 C878.5,93.2347465 881.278089,96.169022 887.222911,96.169022 L895.355658,96.169022 L888.014594,129.927434 C887.222911,133.659376 886.229708,139.741588 886.229708,146.023217 C886.229708,161.919583 894.563974,173.5 912.412835,173.5 C922.733507,173.5 931.845062,168.400628 938.797481,162.304172 C945.548381,156.421377 950.5,149.156909 950.5,144.442127 C950.5,139.941005 946.930228,136.209062 942.367253,136.209062 Z" id="Path" fill="#000000"></path>
                <path d="M490.5,40.9475709 C490.5,35.2390688 486.595941,31.5 480.555966,31.5 C474.119926,31.5 471.206027,35.8241903 469.833948,42.5174089 L445.476015,156.773077 C444.896064,159.127834 444.5,161.097267 444.5,163.0667 C444.5,168.775202 448.404059,172.5 454.246002,172.5 C460.880074,172.5 463.793973,168.17581 465.166052,161.482591 L489.523985,47.2411943 C489.920049,44.872166 490.5,42.917004 490.5,40.9475709 Z" id="Path" fill="#000000"></path>
                <path d="M840.410299,75.6710513 C808.984551,75.6710513 787.577987,106.92988 787.577987,136.619346 C787.577987,137.175756 787.592239,137.732166 787.606491,138.274309 C782.675286,145.764444 776.375884,153.52565 772.057516,153.52565 C768.922067,153.52565 767.739148,150.572397 767.739148,146.049782 C767.739148,140.54275 769.306872,131.297784 771.074125,123.236973 L787.378459,47.7364161 C787.777516,45.3823738 788.162321,43.4135384 788.162321,41.444703 C788.162321,35.7379338 784.428286,32 778.342665,32 C771.658459,32 768.922067,36.3228777 767.539619,43.0140646 L758.703354,83.9030659 C753.985929,78.9952444 747.102194,75.6425175 736.698205,75.6425175 C715.833218,75.6425175 694.839964,91.7213397 686.659293,116.38885 C677.652004,139.701002 669.599601,153.497116 663.243191,153.497116 C660.891605,153.497116 659.509157,151.528281 659.509157,148.189821 C659.509157,138.359911 665.010444,114.377213 667.362031,102.778205 C668.145893,98.4553273 668.54495,96.6862289 668.54495,94.1324497 C668.54495,85.4866943 654.207398,75.2573105 635.551478,75.2573105 C613.973889,75.2573105 594.434343,88.9392897 584.643191,109.255388 C570.091859,134.992917 556.737697,153.497116 550.124751,153.497116 C547.174578,153.497116 546.191188,149.759182 545.407325,146.220986 L540.518876,119.128099 L570.562176,94.5604574 C573.31282,92.2064151 576.847325,88.8536882 576.847325,84.5308105 C576.847325,79.2235151 573.31282,75.6853182 568.011061,75.6853182 C564.077498,75.6853182 560.74252,78.0393605 557.407543,80.7928767 L512.242829,118.143681 L527.364243,47.7649499 C527.7633,45.4109076 528.347634,43.4420722 528.347634,41.4732369 C528.347634,35.7664677 524.414071,32.0285338 518.32845,32.0285338 C511.843772,32.0285338 508.907851,36.3514115 507.525403,43.0425984 L482.983391,157.263584 C482.399057,159.617626 482,161.586462 482,163.555297 C482,169.262066 485.933563,172.985733 491.819655,172.985733 C498.503862,172.985733 501.439782,168.662855 502.82223,161.971669 L505.971931,147.233937 L524.428323,132.296469 L528.946219,155.095012 C530.713472,164.140241 535.430898,172.985733 547.60214,172.985733 C559.716374,172.985733 569.250988,161.914601 578.799855,146.948599 C581.693019,162.627947 592.838114,172.985733 608.301578,172.985733 C623.822049,172.985733 634.425567,163.740767 641.29505,151.357078 L641.29505,151.756552 C641.29505,164.539715 647.779728,172.985733 659.167108,172.985733 C669.471333,172.985733 678.022557,166.765355 685.66165,153.554184 C689.99427,165.067591 699.685657,172.985733 713.168087,172.985733 C729.073364,172.985733 740.460743,163.35556 747.729284,149.987453 L747.729284,151.171608 C747.729284,165.324395 754.798296,173 766.385204,173 C776.618169,173 785.311913,167.050693 792.737226,157.377719 C798.381034,167.050693 808.499982,173 822.167688,173 C853.593436,173 875,141.741172 875,111.851968 C874.985748,90.8082566 862.21592,75.6710513 840.410299,75.6710513 Z M644.615775,115.589902 C638.914959,140.157543 626.743717,154.124861 612.990499,154.124861 C603.755177,154.124861 598.652947,147.048467 598.652947,136.433876 C598.652947,115.589902 613.774361,93.1765658 633.998005,93.1765658 C640.083626,93.1765658 644.801052,94.9456643 648.919891,97.4994435 L644.615775,115.589902 Z M754.000181,105.175048 C747.715032,134.079834 733.37748,154.124861 717.671732,154.124861 C709.034995,154.124861 703.918513,147.433674 703.918513,136.433876 C703.918513,115.404432 718.455594,93.5760397 737.895376,93.5760397 C745.363445,93.5760397 751.050009,96.1298189 755.183101,99.4682789 L754.000181,105.175048 Z M824.505023,154.124861 C813.117643,154.124861 808.400218,145.864312 808.400218,135.449459 C808.400218,116.374583 821.55485,94.5604574 838.058713,94.5604574 C849.446092,94.5604574 854.163518,102.821006 854.163518,113.23586 C854.163518,132.496206 841.008885,154.124861 824.505023,154.124861 Z" id="Shape" fill="#000000"></path>
                <path d="M404.698956,75.5 C373.055121,75.5 351.5,106.657748 351.5,136.25121 C351.5,157.411743 364.358447,172.5 386.301044,172.5 C417.944879,172.5 439.5,141.342252 439.5,111.549699 C439.5,90.5882569 426.641553,75.5 404.698956,75.5 Z M388.683301,153.700117 C377.216895,153.700117 372.466732,145.466281 372.466732,135.085105 C372.466732,116.07191 385.712655,94.3283243 402.33105,94.3283243 C413.797456,94.3283243 418.547619,102.562161 418.547619,112.943337 C418.533268,132.141402 405.287345,153.700117 388.683301,153.700117 Z" id="Shape" fill="#000000"></path>
                <ellipse id="Oval" fill="#E6007A" cx="105" cy="21" rx="36" ry="21"></ellipse>
                <ellipse id="Oval" fill="#E6007A" cx="105" cy="180" rx="36" ry="21"></ellipse>
                <ellipse id="Oval" fill="#E6007A" transform="translate(36.392643, 60.685828) rotate(-59.999272) translate(-36.392643, -60.685828) " cx="36.3926435" cy="60.6858278" rx="36.2400256" ry="21.0867854"></ellipse>
                <ellipse id="Oval" fill="#E6007A" transform="translate(173.883967, 140.099756) rotate(-59.999272) translate(-173.883967, -140.099756) " cx="173.883967" cy="140.099756" rx="36.2400256" ry="21.0725376"></ellipse>
                <ellipse id="Oval" fill="#E6007A" transform="translate(36.397687, 140.094925) rotate(-30.000728) translate(-36.397687, -140.094925) " cx="36.3976868" cy="140.094925" rx="21.0867854" ry="36.2400256"></ellipse>
                <ellipse id="Oval" fill="#E6007A" transform="translate(173.892500, 60.690446) rotate(-30.000728) translate(-173.892500, -60.690446) " cx="173.8925" cy="60.6904456" rx="21.0725376" ry="36.2400256"></ellipse>
            </g>
        </g>
    </g>
</svg>