<?xml version="1.0" encoding="UTF-8"?>
<svg width="60px" height="60px" viewBox="0 0 60 60" version="1.1" xmlns="http://www.w3.org/2000/svg" xmlns:xlink="http://www.w3.org/1999/xlink">
    <title>question_icon</title>
    <g id="Page-1" stroke="none" stroke-width="1" fill="none" fill-rule="evenodd">
        <g id="Desktop" transform="translate(-1294.000000, -102.000000)" fill-rule="nonzero">
            <g id="question_icon" transform="translate(1294.000000, 102.000000)">
                <rect id="Rectangle" fill="#212529" x="0" y="0" width="60" height="60" rx="4"></rect>
                <path d="M48,38 L48,23 L43,23 L43,38 L44.6532734,38 L48,38 Z M43,43 L43,38 L33,38 L33,43 L36.3065467,43 L43,43 Z M43,23 L43,18 L38,18 L38,23 L39.6532734,23 L43,23 Z M18,33 L18,28 L13,28 L13,33 L14.6532734,33 L18,33 Z M28,33 L28,28 L23,28 L23,33 L24.6532734,33 L28,33 Z M33,38 L33,28 L28,28 L28,38 L29.6532734,38 L33,38 Z" id="icon" fill="#FFFFFF" transform="translate(30.500000, 30.500000) rotate(-90.000000) translate(-30.500000, -30.500000) "></path>
            </g>
        </g>
    </g>
</svg>